<svg width="14" height="15" viewBox="0 0 14 15" fill="none" xmlns="http://www.w3.org/2000/svg">
    <g id="Group 6965">
        <path id="Vector"
              d="M13.9854 5.30797V4.09385C13.9854 3.16454 13.2485 2.41505 12.3496 2.41505H11.4801V1.89043C11.4801 1.24586 10.9643 0.72124 10.3306 0.72124C9.6969 0.72124 9.18111 1.24586 9.18111 1.89043V2.41505L4.81901 2.415V1.89038C4.81901 1.24582 4.30322 0.721191 3.66951 0.721191C3.0358 0.721191 2.52001 1.24582 2.52001 1.89038V2.415H1.65053C0.736866 2.415 0 3.16447 0 4.0938V13.0574C0 13.9717 0.736842 14.7212 1.65053 14.7212H12.3642C13.2631 14.7212 14 13.9717 14 13.0574L13.9854 5.30797ZM9.85907 1.89042C9.85907 1.63562 10.0654 1.42576 10.3159 1.42576C10.5664 1.42576 10.7727 1.63562 10.7727 1.89042V2.99963C10.7727 3.25443 10.5664 3.46429 10.3159 3.46429C10.0654 3.46429 9.85907 3.25443 9.85907 2.99963V1.89042ZM3.19802 1.89042C3.19802 1.63562 3.40435 1.42576 3.65485 1.42576C3.90535 1.42576 4.11168 1.63562 4.11168 1.89042V2.99963C4.11168 3.25443 3.90535 3.46429 3.65485 3.46429C3.40435 3.46429 3.19802 3.25443 3.19802 2.99963V1.89042ZM1.63591 3.11956H2.52012C2.57908 3.70415 3.06536 4.16881 3.66962 4.16881C4.25909 4.16881 4.74543 3.70415 4.80433 3.11956H9.18118C9.24013 3.70415 9.72641 4.16881 10.3159 4.16881C10.9054 4.16881 11.3917 3.70415 11.4506 3.11956H12.3348C12.8506 3.11956 13.278 3.55426 13.278 4.09386V4.96326L0.677981 4.96322V4.09381C0.677981 3.55421 1.1054 3.11956 1.63591 3.11956ZM12.3496 14.0168H1.63591C1.1054 14.0168 0.678017 13.5821 0.678017 13.0574V5.65273H13.2928V13.0574C13.2928 13.5821 12.8654 14.0168 12.3496 14.0168Z"
              fill="#CC0033"/>
        <path id="Vector_2"
              d="M9.10152 9.44015C8.99489 9.44015 8.89282 9.40073 8.81824 9.33076L6.99301 7.65602L5.16777 9.33088C5.06422 9.41009 4.92433 9.43645 4.79503 9.4011C4.66586 9.36562 4.56459 9.27323 4.52529 9.15472C4.48599 9.03634 4.51389 8.90773 4.5996 8.81201L6.70812 6.8739C6.78403 6.80516 6.88637 6.7666 6.99301 6.7666C7.09964 6.7666 7.20198 6.80516 7.2779 6.8739L9.38641 8.81189C9.46099 8.88161 9.5027 8.97548 9.5023 9.07317C9.50203 9.17086 9.45978 9.26448 9.38467 9.33384C9.30969 9.40307 9.20789 9.44236 9.10152 9.44323V9.44027V9.44015Z"
              fill="#CC0033"/>
        <path id="Vector_3"
              d="M6.99568 13.1303C6.88891 13.1307 6.7863 13.0919 6.71079 13.0224L4.60241 11.0845C4.51013 10.9897 4.4774 10.8581 4.51576 10.7359C4.55412 10.6137 4.65807 10.5182 4.79099 10.4831C4.92392 10.4479 5.0673 10.4779 5.17058 10.5627L6.99581 12.239L8.82105 10.5627C8.92419 10.4779 9.06758 10.4479 9.20063 10.4831C9.33356 10.5183 9.43764 10.6137 9.47587 10.7359C9.51423 10.858 9.4815 10.9897 9.38922 11.0845L7.28553 13.0225C7.20881 13.093 7.10433 13.1319 6.99581 13.1304L6.99568 13.1303Z"
              fill="#CC0033"/>
    </g>
</svg>
