<svg width="24" height="22" viewBox="0 0 24 22" fill="none" xmlns="http://www.w3.org/2000/svg">
    <path d="M17.4229 10.0236C17.1628 8.95129 16.5987 7.97731 15.7987 7.21876V7.21917C15.0488 6.50014 14.118 5.99945 13.1056 5.77044C12.0933 5.54143 11.038 5.59309 10.0528 5.91935C9.06747 6.24582 8.18961 6.83498 7.5132 7.62345C6.8368 8.41191 6.38774 9.36999 6.21363 10.395C6.03973 11.4198 6.14766 12.4728 6.52595 13.441C6.90423 14.4091 7.53846 15.2557 8.36059 15.89C8.87833 16.3102 9.17624 16.9441 9.16977 17.6117V19.5969C9.16977 19.7301 9.22258 19.8577 9.31653 19.9518C9.41047 20.0459 9.53782 20.0988 9.67081 20.0988H14.0699C14.2027 20.0988 14.3303 20.0459 14.4242 19.9518C14.5182 19.8577 14.571 19.7301 14.571 19.5969V17.6117C14.5626 16.9462 14.8589 16.3137 15.3751 15.895C16.2453 15.2185 16.9014 14.3041 17.2647 13.2623C17.6279 12.2206 17.6829 11.0958 17.4227 10.0236H17.4229ZM13.5689 19.0951H10.1668V18.1138H13.5689V19.0951ZM16.405 12.6531C16.1305 13.6221 15.5536 14.4777 14.7589 15.0944V15.1022C14.1372 15.6022 13.7274 16.3196 13.6115 17.1099H10.1142C9.99794 16.3192 9.58709 15.6018 8.96434 15.1022C8.38856 14.6573 7.92447 14.0839 7.60882 13.4278C7.29316 12.7717 7.1345 12.0508 7.14557 11.3226C7.15955 10.1235 7.62761 8.97451 8.45474 8.10803C9.28208 7.24134 10.4071 6.72183 11.6023 6.65449C12.6061 6.59635 13.6021 6.86154 14.4445 7.41117C15.287 7.961 15.9319 8.7662 16.2845 9.70943C16.6373 10.6527 16.6795 11.6844 16.405 12.6531Z"
          fill="#CC0033"/>
    <path d="M13.862 21.2109C13.862 21.3439 13.8092 21.4717 13.7152 21.5658C13.6213 21.66 13.4939 21.7129 13.361 21.7129H10.3547C10.1758 21.7129 10.0102 21.6173 9.92069 21.4619C9.83113 21.3065 9.83113 21.1153 9.92069 20.96C10.0102 20.8046 10.1756 20.709 10.3547 20.709H13.361C13.4937 20.709 13.6213 20.7619 13.7152 20.856C13.8092 20.9501 13.862 21.0777 13.862 21.2109Z"
          fill="#CC0033"/>
    <path d="M11.8585 0.492188C11.9912 0.492188 12.1188 0.545101 12.2127 0.639215C12.3067 0.733329 12.3595 0.860906 12.3595 0.99413V4.00578C12.3595 4.18502 12.2641 4.35087 12.109 4.44059C11.9539 4.53031 11.7631 4.53031 11.6079 4.44059C11.4528 4.35087 11.3574 4.18523 11.3574 4.00578V0.99413C11.3574 0.861115 11.4102 0.733329 11.5042 0.639215C11.5981 0.545101 11.7255 0.492188 11.8585 0.492188Z"
          fill="#CC0033"/>
    <path d="M23.3014 11.8974C23.3014 12.0305 23.2486 12.1583 23.1547 12.2524C23.0607 12.3465 22.9334 12.3994 22.8004 12.3994H19.7942C19.6153 12.3994 19.4497 12.3038 19.3601 12.1484C19.2706 11.993 19.2706 11.8019 19.3601 11.6465C19.4497 11.4911 19.615 11.3955 19.7942 11.3955H22.8004C22.9332 11.3955 23.0607 11.4484 23.1547 11.5425C23.2486 11.6366 23.3014 11.7642 23.3014 11.8974Z"
          fill="#CC0033"/>
    <path d="M20.3247 3.21636C20.4186 3.31048 20.4715 3.43805 20.4715 3.57128C20.4715 3.7045 20.4186 3.83208 20.3247 3.92619L18.199 6.05568C18.0725 6.18242 17.888 6.23199 17.7151 6.18556C17.5423 6.13913 17.4072 6.00381 17.3608 5.83064C17.3145 5.65747 17.364 5.47259 17.4905 5.34585L19.6161 3.21636C19.7101 3.12225 19.8374 3.06934 19.9704 3.06934C20.1034 3.06934 20.2308 3.12225 20.3247 3.21636Z"
          fill="#CC0033"/>
    <path d="M0.416016 11.8974C0.416016 12.0305 0.468834 12.1583 0.562779 12.2524C0.656724 12.3465 0.784071 12.3994 0.917056 12.3994H3.9233C4.10221 12.3994 4.26776 12.3038 4.35732 12.1484C4.44688 11.993 4.44688 11.8019 4.35732 11.6465C4.26776 11.4911 4.10242 11.3955 3.9233 11.3955H0.917056C0.78428 11.3955 0.656724 11.4484 0.562779 11.5425C0.468834 11.6366 0.416016 11.7642 0.416016 11.8974Z"
          fill="#CC0033"/>
    <path d="M3.3909 3.21636C3.29696 3.31048 3.24414 3.43805 3.24414 3.57128C3.24414 3.7045 3.29696 3.83208 3.3909 3.92619L5.51657 6.05568C5.64308 6.18242 5.82763 6.23199 6.00049 6.18556C6.17334 6.13913 6.30842 6.00381 6.35476 5.83064C6.40111 5.65747 6.35163 5.47259 6.22512 5.34585L4.09946 3.21636C4.00551 3.12225 3.87816 3.06934 3.74518 3.06934C3.6122 3.06934 3.48485 3.12225 3.3909 3.21636Z"
          fill="#CC0033"/>
</svg>
