<svg width="20" height="13" viewBox="0 0 20 13" fill="none" xmlns="http://www.w3.org/2000/svg">
<path d="M1.09961 0.0114746C0.547324 0.0114746 0.0996094 0.45919 0.0996094 1.01147V1.41148C0.0996094 1.96376 0.547325 2.41147 1.09961 2.41147H18.0996C18.6519 2.41147 19.0996 1.96376 19.0996 1.41147V1.01147C19.0996 0.459189 18.6519 0.0114746 18.0996 0.0114746H1.09961ZM1.09961 4.81147C0.547324 4.81147 0.0996094 5.25919 0.0996094 5.81147V6.21148C0.0996094 6.76376 0.547325 7.21147 1.09961 7.21147H18.0996C18.6519 7.21147 19.0996 6.76376 19.0996 6.21147V5.81147C19.0996 5.25919 18.6519 4.81147 18.0996 4.81147H1.09961ZM1.09961 9.61147C0.547324 9.61147 0.0996094 10.0592 0.0996094 10.6115V11.0115C0.0996094 11.5638 0.547325 12.0115 1.09961 12.0115H18.0996C18.6519 12.0115 19.0996 11.5638 19.0996 11.0115V10.6115C19.0996 10.0592 18.6519 9.61147 18.0996 9.61147H1.09961Z" fill="#CC0033"/>
</svg>
