<svg width="20" height="13" viewBox="0 0 20 13" fill="none" xmlns="http://www.w3.org/2000/svg">
<path id="Vector" d="M1.5 0.0114746C0.947715 0.0114746 0.5 0.45919 0.5 1.01147V1.41148C0.5 1.96376 0.947715 2.41147 1.5 2.41147H18.5C19.0523 2.41147 19.5 1.96376 19.5 1.41147V1.01147C19.5 0.459189 19.0523 0.0114746 18.5 0.0114746H1.5ZM1.5 4.81147C0.947715 4.81147 0.5 5.25919 0.5 5.81147V6.21148C0.5 6.76376 0.947715 7.21147 1.5 7.21147H18.5C19.0523 7.21147 19.5 6.76376 19.5 6.21147V5.81147C19.5 5.25919 19.0523 4.81147 18.5 4.81147H1.5ZM1.5 9.61147C0.947715 9.61147 0.5 10.0592 0.5 10.6115V11.0115C0.5 11.5638 0.947715 12.0115 1.5 12.0115H18.5C19.0523 12.0115 19.5 11.5638 19.5 11.0115V10.6115C19.5 10.0592 19.0523 9.61147 18.5 9.61147H1.5Z" fill="#CC0033"/>
</svg>
