<svg width="26" height="23" viewBox="0 0 26 23" fill="none" xmlns="http://www.w3.org/2000/svg">
    <path d="M7.28862 13.7973H7.23078C6.84534 13.7973 6.537 14.1057 6.537 14.4911V14.5682C6.537 14.9537 6.84534 15.262 7.23078 15.262H7.28862C7.67406 15.262 7.98239 14.9537 7.98239 14.5682V14.4911C7.98239 14.1057 7.67406 13.7973 7.28862 13.7973Z"
          fill="#CC0033"/>
    <path d="M10.1023 13.7973H10.0445C9.65906 13.7973 9.35073 14.1057 9.35073 14.4911V14.5682C9.35073 14.9537 9.65906 15.262 10.0445 15.262H10.1023C10.4878 15.262 10.7961 14.9537 10.7961 14.5682V14.4911C10.7961 14.1057 10.4878 13.7973 10.1023 13.7973Z"
          fill="#CC0033"/>
    <path d="M12.9353 13.7973H12.8582C12.4728 13.7973 12.1644 14.1057 12.1644 14.4911V14.5682C12.1644 14.9537 12.4728 15.262 12.8582 15.262H12.9353C13.3208 15.262 13.6291 14.9537 13.6291 14.5682L13.6292 14.4911C13.6292 14.1057 13.3208 13.7973 12.9353 13.7973Z"
          fill="#CC0033"/>
    <path d="M7.28862 10.9451H7.23078C6.84534 10.9451 6.537 11.2534 6.537 11.6389V11.716C6.537 12.1014 6.84534 12.4097 7.23078 12.4097H7.28862C7.67406 12.4097 7.98239 12.1014 7.98239 11.716V11.6389C7.98239 11.2534 7.67406 10.9451 7.28862 10.9451Z"
          fill="#CC0033"/>
    <path d="M10.1023 10.9451H10.0445C9.65906 10.9451 9.35073 11.2534 9.35073 11.6389V11.716C9.35073 12.1014 9.65906 12.4097 10.0445 12.4097H10.1023C10.4878 12.4097 10.7961 12.1014 10.7961 11.716V11.6389C10.7961 11.2534 10.4878 10.9451 10.1023 10.9451Z"
          fill="#CC0033"/>
    <path d="M12.9353 10.9451H12.8582C12.4728 10.9451 12.1644 11.2534 12.1644 11.6389V11.716C12.1644 12.1014 12.4728 12.4097 12.8582 12.4097H12.9353C13.3208 12.4097 13.6291 12.1014 13.6291 11.716V11.6389C13.6292 11.2534 13.3208 10.9451 12.9353 10.9451Z"
          fill="#CC0033"/>
    <path d="M15.749 13.7973H15.6719C15.2865 13.7973 14.9781 14.1057 14.9781 14.4911V14.5682C14.9781 14.9537 15.2865 15.262 15.6719 15.262H15.749C16.1344 15.262 16.4428 14.9537 16.4428 14.5682V14.4911C16.462 14.1057 16.1344 13.7973 15.749 13.7973Z"
          fill="#CC0033"/>
    <path d="M18.582 13.7973H18.5049C18.1194 13.7973 17.8111 14.1057 17.8111 14.4911V14.5682C17.8111 14.9537 18.1194 15.262 18.5049 15.262H18.582C18.9674 15.262 19.2757 14.9537 19.2757 14.5682V14.4911C19.2757 14.1057 18.9674 13.7973 18.582 13.7973Z"
          fill="#CC0033"/>
    <path d="M15.749 10.9451H15.6719C15.2865 10.9451 14.9781 11.2534 14.9781 11.6389V11.716C14.9781 12.1014 15.2865 12.4097 15.6719 12.4097H15.749C16.1344 12.4097 16.4428 12.1014 16.4428 11.716V11.6389C16.462 11.2534 16.1344 10.9451 15.749 10.9451Z"
          fill="#CC0033"/>
    <path d="M18.582 10.9451H18.5049C18.1194 10.9451 17.8111 11.2534 17.8111 11.6389V11.716C17.8111 12.1014 18.1194 12.4097 18.5049 12.4097H18.582C18.9674 12.4097 19.2757 12.1014 19.2757 11.716V11.6389C19.2757 11.2534 18.9674 10.9451 18.582 10.9451Z"
          fill="#CC0033"/>
    <path d="M7.28862 16.6303H7.23078C6.84534 16.6303 6.537 16.9386 6.537 17.3241V17.4012C6.537 17.7866 6.84534 18.0949 7.23078 18.0949H7.28862C7.67406 18.0949 7.98239 17.7866 7.98239 17.4012V17.3241C7.98239 16.958 7.67406 16.6303 7.28862 16.6303Z"
          fill="#CC0033"/>
    <path d="M10.1023 16.6303H10.0445C9.65906 16.6303 9.35073 16.9386 9.35073 17.3241V17.4012C9.35073 17.7866 9.65906 18.0949 10.0445 18.0949H10.1023C10.4878 18.0949 10.7961 17.7866 10.7961 17.4012V17.3241C10.7961 16.958 10.4878 16.6303 10.1023 16.6303Z"
          fill="#CC0033"/>
    <path d="M12.9353 16.6303H12.8582C12.4728 16.6303 12.1644 16.9386 12.1644 17.3241V17.4012C12.1644 17.7866 12.4728 18.0949 12.8582 18.0949H12.9353C13.3208 18.0949 13.6291 17.7866 13.6291 17.4012V17.3241C13.6292 16.958 13.3208 16.6303 12.9353 16.6303Z"
          fill="#CC0033"/>
    <path d="M15.749 16.6303H15.6719C15.2865 16.6303 14.9781 16.9386 14.9781 17.3241V17.4012C14.9781 17.7866 15.2865 18.0949 15.6719 18.0949H15.749C16.1344 18.0949 16.4428 17.7866 16.4428 17.4012V17.3241C16.462 16.958 16.1344 16.6303 15.749 16.6303Z"
          fill="#CC0033"/>
    <path d="M18.582 16.6303H18.5049C18.1194 16.6303 17.8111 16.9386 17.8111 17.3241V17.4012C17.8111 17.7866 18.1194 18.0949 18.5049 18.0949H18.582C18.9674 18.0949 19.2757 17.7866 19.2757 17.4012V17.3241C19.2757 16.958 18.9674 16.6303 18.582 16.6303Z"
          fill="#CC0033"/>
    <path d="M22.0509 8.69025V7.12924C22.0509 5.93442 21.0873 4.97079 19.9117 4.97079H18.7747V4.29627C18.7747 3.46755 18.1002 2.79303 17.2714 2.79303C16.4427 2.79303 15.7682 3.46755 15.7682 4.29627V4.97079L10.0637 4.97073V4.29621C10.0637 3.46749 9.3892 2.79297 8.56047 2.79297C7.73175 2.79297 7.05723 3.46749 7.05723 4.29621V4.97073H5.92017C4.72535 4.97073 3.76172 5.93432 3.76172 7.12918V18.6538C3.76172 19.8294 4.72531 20.793 5.92017 20.793H19.9309C21.1064 20.793 22.07 19.8294 22.07 18.6538L22.0509 8.69025ZM16.6548 4.29626C16.6548 3.96867 16.9246 3.69884 17.2522 3.69884C17.5798 3.69884 17.8496 3.96867 17.8496 4.29626V5.72239C17.8496 6.04999 17.5798 6.31981 17.2522 6.31981C16.9246 6.31981 16.6548 6.04999 16.6548 5.72239V4.29626ZM7.94388 4.29626C7.94388 3.96867 8.21371 3.69884 8.5413 3.69884C8.86889 3.69884 9.13871 3.96867 9.13871 4.29626V5.72239C9.13871 6.04999 8.86889 6.31981 8.5413 6.31981C8.21371 6.31981 7.94388 6.04999 7.94388 5.72239V4.29626ZM5.90106 5.87659H7.05738C7.13448 6.62821 7.77041 7.22562 8.56062 7.22562C9.33149 7.22562 9.9675 6.62821 10.0445 5.87659H15.7683C15.8454 6.62821 16.4813 7.22562 17.2522 7.22562C18.0231 7.22562 18.6591 6.62821 18.7361 5.87659H19.8924C20.5669 5.87659 21.1258 6.43549 21.1258 7.12926V8.24706L4.64834 8.247V7.1292C4.64834 6.43542 5.20729 5.87659 5.90106 5.87659ZM19.9117 19.8873H5.90106C5.20729 19.8873 4.64839 19.3284 4.64839 18.6538V9.13352H21.1451V18.6538C21.1452 19.3284 20.5863 19.8873 19.9117 19.8873Z"
          fill="#CC0033"/>
</svg>
