<svg width="25" height="22" viewBox="0 0 25 22" fill="none"  class="contact__item-icon" xmlns="http://www.w3.org/2000/svg">
<path d="M4.41481 6.12363C4.98194 2.90536 7.73969 0.529297 10.9304 0.529297H17.7192C21.3631 0.529297 24.3418 3.58732 24.3418 7.32836V10.793C24.3418 14.534 21.3628 17.5923 17.7192 17.5923H16.8355L14.812 20.6635C14.5746 21.0252 14.0576 21.013 13.8314 20.654L12.2927 18.3181C11.6688 18.6089 10.9769 18.7711 10.25 18.7711H9.69273L8.27 20.9304C8.03252 21.2921 7.51557 21.2799 7.28941 20.9209L5.87301 18.771H5.31572C2.57898 18.771 0.341797 16.4742 0.341797 13.664V11.1455C0.341797 8.68838 2.06874 6.56792 4.415 6.12329L4.41481 6.12363ZM13.2993 17.6927L14.3249 19.2495L16.0214 16.6745C16.1246 16.5004 16.311 16.3843 16.5238 16.3843H17.7193C20.7134 16.3843 23.1654 13.8669 23.1654 10.7929V7.32825C23.1654 4.25427 20.7134 1.73686 17.7193 1.73686H10.9304C8.41259 1.73686 6.21243 3.52981 5.63064 6.03889H10.25C12.9872 6.03889 15.2244 8.33555 15.2244 11.1455V13.664C15.2244 15.2456 14.5096 16.7235 13.2994 17.6926L13.2993 17.6927ZM10.25 7.24666H5.31574C3.2283 7.24666 1.5181 9.00269 1.5181 11.1456V13.6641C1.5181 15.8074 3.22849 17.5631 5.31574 17.5631H6.18469C6.37312 17.564 6.55844 17.6572 6.67182 17.8298L7.78288 19.5164L8.8786 17.8533C8.98184 17.6791 9.16827 17.563 9.38139 17.563H10.2501C12.3377 17.563 14.0477 15.8073 14.0477 13.664V11.1456C14.0477 9.00242 12.3377 7.24657 10.2501 7.24657L10.25 7.24666Z" fill="#CC0033"/>
</svg>
