<svg width="37" height="32" viewBox="0 0 37 32" fill="none" xmlns="http://www.w3.org/2000/svg">
    <path d="M7.04019 9.34756C7.89088 4.52014 12.0275 0.956055 16.8135 0.956055H26.9968C32.4625 0.956055 36.9307 5.54309 36.9307 11.1546V16.3516C36.9307 21.9632 32.4622 26.5505 26.9968 26.5505H25.6713L22.636 31.1574C22.2798 31.6999 21.5044 31.6817 21.1651 31.1431L18.857 27.6392C17.9211 28.0755 16.8833 28.3188 15.793 28.3188H14.9571L12.823 31.5577C12.4667 32.1002 11.6913 32.082 11.3521 31.5434L9.22748 28.3187H8.39155C4.28643 28.3187 0.930664 24.8733 0.930664 20.6581V16.8804C0.930664 13.1947 3.52108 10.014 7.04046 9.34704L7.04019 9.34756ZM20.3669 26.7011L21.9053 29.0364L24.45 25.1739C24.6049 24.9127 24.8845 24.7385 25.2037 24.7385H26.9969C31.4881 24.7385 35.166 20.9624 35.166 16.3514V11.1545C35.166 6.54351 31.4881 2.7674 26.9969 2.7674H16.8136C13.0368 2.7674 9.73662 5.45683 8.86392 9.22044H15.793C19.8987 9.22044 23.2545 12.6654 23.2545 16.8804V20.6581C23.2545 23.0305 22.1824 25.2473 20.3671 26.7009L20.3669 26.7011ZM15.7929 11.0321H8.39158C5.26043 11.0321 2.69511 13.6661 2.69511 16.8806V20.6583C2.69511 23.8733 5.2607 26.5067 8.39158 26.5067H9.69501C9.97765 26.5081 10.2556 26.6479 10.4257 26.9068L12.0923 29.4368L13.7359 26.942C13.8907 26.6807 14.1704 26.5066 14.4901 26.5066H15.7931C18.9246 26.5066 21.4896 23.873 21.4896 20.6581V16.8804C21.4896 13.6657 18.9245 11.032 15.7931 11.032L15.7929 11.0321Z"
          fill="#CC0033"/>
</svg>
