<svg width="18" height="19" viewBox="0 0 18 19" fill="none" xmlns="http://www.w3.org/2000/svg">
    <path d="M16.9959 12.2925C16.7448 12.2929 16.504 12.3984 16.3264 12.5859C16.1489 12.7733 16.0489 13.0274 16.0485 13.2925V15.6925C16.0481 15.8515 15.9881 16.0039 15.8816 16.1163C15.7751 16.2287 15.6307 16.292 15.4801 16.2925H3.35378C3.20315 16.2921 3.05879 16.2287 2.95228 16.1163C2.84576 16.0039 2.78578 15.8515 2.78536 15.6925V13.2925C2.78536 12.9352 2.60477 12.6051 2.31167 12.4265C2.01858 12.2478 1.6574 12.2478 1.36431 12.4265C1.07122 12.6051 0.890625 12.9352 0.890625 13.2925V15.6925C0.891454 16.3818 1.1512 17.0426 1.61293 17.5301C2.07471 18.0175 2.70075 18.2917 3.35381 18.2925H15.4801C16.1331 18.2916 16.7592 18.0175 17.221 17.5301C17.6827 17.0426 17.9425 16.3818 17.9433 15.6925V13.2925C17.9429 13.0274 17.8429 12.7733 17.6653 12.5859C17.4878 12.3984 17.247 12.2929 16.9959 12.2925H16.9959Z"
          fill="#CC0033"/>
    <path d="M9.41787 0.292972C9.16677 0.293409 8.92601 0.398909 8.74844 0.586347C8.57087 0.773787 8.47091 1.02791 8.4705 1.29297V10.3578L5.47683 7.72496C5.28375 7.55552 5.03488 7.47384 4.78478 7.49778C4.53473 7.52177 4.30387 7.64952 4.14293 7.85296C3.98241 8.05677 3.90503 8.31945 3.92771 8.58345C3.95044 8.84739 4.07147 9.09108 4.2642 9.26096L8.81156 13.2609C8.85928 13.2967 8.91002 13.3278 8.96314 13.3538C8.99777 13.3783 9.03401 13.4002 9.07149 13.4193C9.29228 13.5174 9.5412 13.5174 9.76195 13.4193C9.79854 13.4001 9.834 13.3784 9.86805 13.3546C9.92116 13.3285 9.97185 13.2974 10.0196 13.2618L14.567 9.26177C14.7675 9.0857 14.8904 8.83014 14.9067 8.5554C14.923 8.28059 14.8312 8.01091 14.6531 7.80983C14.4749 7.60878 14.2261 7.49416 13.9652 7.49296C13.7437 7.49339 13.5293 7.57545 13.3589 7.72496L10.3652 10.3577V1.29297C10.3648 1.02791 10.2649 0.773784 10.0873 0.586344C9.90974 0.398905 9.66898 0.293404 9.41787 0.292972Z"
          fill="#CC0033"/>
</svg>
