<svg width="41" height="28" viewBox="0 0 41 28" fill="none" xmlns="http://www.w3.org/2000/svg">
    <path d="M4.64491 0.956055C2.60338 0.956055 0.930664 2.62878 0.930664 4.6703V23.2418C0.930664 25.2833 2.60338 26.9561 4.64491 26.9561H37.1446C39.1861 26.9561 40.8588 25.2833 40.8588 23.2418V4.6703C40.8588 2.62878 39.1861 0.956055 37.1446 0.956055H4.64491ZM4.64491 2.81327H37.1446C37.2653 2.81327 37.3793 2.83607 37.4928 2.85695L21.7074 16.9743C21.3124 17.3274 20.4775 17.3274 20.0825 16.9743L4.29712 2.85695C4.41063 2.83607 4.52419 2.81327 4.64491 2.81327ZM2.88943 4.08997L14.3804 14.3621L2.90417 23.865C2.83866 23.6723 2.78802 23.4592 2.78802 23.2411V4.66956C2.78802 4.46293 2.8304 4.2738 2.88943 4.08997ZM38.9002 4.08997C38.9592 4.27404 39.0017 4.46363 39.0017 4.67025V23.2418C39.0017 23.4599 38.9511 23.673 38.8856 23.8657L27.4093 14.3622L38.9002 4.08997ZM15.7879 15.6246L18.8492 18.3522C20.0102 19.39 21.7796 19.39 22.9407 18.3522L26.0019 15.6246L37.4204 25.0845C37.3295 25.0975 37.24 25.0989 37.1447 25.0989H4.64501C4.54974 25.0989 4.46022 25.0989 4.36927 25.0845L15.7879 15.6246Z"
          fill="#CC0033" stroke="#CC0033" stroke-width="0.2"/>
</svg>
