<svg width="11" height="19" viewBox="0 0 11 19" fill="none" xmlns="http://www.w3.org/2000/svg">
<path d="M7.60013 6.56653C7.67023 6.56653 7.73172 6.56653 7.79321 6.56653C8.36558 6.56653 8.93751 6.56389 9.50988 6.56741C10.1098 6.57093 10.4521 6.92725 10.4525 7.54443C10.4534 8.40488 10.4534 9.26576 10.4521 10.1262C10.4512 10.7474 10.1007 11.1028 9.48924 11.1041C8.92289 11.1054 8.35612 11.1041 7.78977 11.1041H7.58422C7.58422 11.1952 7.58422 11.2695 7.58422 11.3443C7.58422 13.3819 7.58551 15.4191 7.58164 17.4567C7.58164 17.6177 7.57132 17.791 7.51456 17.938C7.37695 18.2921 7.10044 18.4813 6.72804 18.4839C5.78972 18.4914 4.85097 18.4914 3.91266 18.4839C3.43748 18.4804 3.09819 18.1373 3.06163 17.6507C3.05604 17.5751 3.05561 17.4985 3.05561 17.4229C3.05561 15.3971 3.05561 13.3714 3.05561 11.3456V11.1041C2.96316 11.1041 2.89005 11.1041 2.81695 11.1041C2.36499 11.1041 1.9126 11.1081 1.46065 11.1028C0.918812 11.0966 0.56232 10.7403 0.55888 10.1926C0.55329 9.28512 0.55329 8.3776 0.55888 7.47009C0.56232 6.92637 0.909782 6.57489 1.44559 6.56785C1.96034 6.56081 2.47551 6.56477 2.99068 6.56345C3.00186 6.56345 3.01261 6.55817 3.04615 6.54937C3.04916 6.49483 3.05518 6.43368 3.05561 6.37209C3.0612 5.83366 3.0483 5.29434 3.07496 4.75678C3.11797 3.89545 3.34459 3.08559 3.8159 2.36107C4.45406 1.37922 5.36098 0.805584 6.48034 0.573316C6.70267 0.527127 6.93316 0.502492 7.16021 0.500293C8.01855 0.491935 8.87731 0.51305 9.73478 0.489735C10.127 0.479178 10.4761 0.828899 10.5278 1.15443C10.5432 1.25208 10.5531 1.35194 10.5531 1.45092C10.5553 2.24142 10.5548 3.03148 10.554 3.82199C10.5531 4.44709 10.2087 4.80165 9.59803 4.80649C9.08888 4.81044 8.57973 4.81264 8.07058 4.8166C8.01941 4.8166 7.96737 4.821 7.91706 4.83024C7.66808 4.87731 7.60959 4.92878 7.60357 5.18524C7.59325 5.63922 7.60056 6.09408 7.60056 6.56609L7.60013 6.56653ZM6.54872 17.4237V17.1805C6.54872 15.0782 6.5556 12.9763 6.54356 10.874C6.54055 10.3708 6.673 10.0118 7.36276 10.0426C7.97942 10.0703 8.59865 10.0483 9.2166 10.0483H9.40839V7.62273C9.334 7.62273 9.27164 7.62273 9.20929 7.62273C8.53415 7.62273 7.85858 7.62537 7.18344 7.62141C6.80974 7.61921 6.56291 7.40982 6.55689 7.04602C6.54657 6.38485 6.547 5.72236 6.57968 5.06251C6.60634 4.52055 6.85576 4.09605 7.37437 3.89721C7.56917 3.82243 7.78375 3.778 7.99146 3.76744C8.43696 3.745 8.88376 3.7538 9.33013 3.74896C9.39119 3.74852 9.45226 3.74324 9.51074 3.74017V1.48523C8.58489 1.51998 7.66937 1.5213 6.76029 1.60005C6.17201 1.65107 5.64179 1.92645 5.19284 2.33336C4.46223 2.99541 4.15089 3.8585 4.10531 4.82672C4.0722 5.52792 4.09241 6.23177 4.08811 6.93429C4.0851 7.39574 3.86277 7.62185 3.40953 7.62273C2.86597 7.62405 2.32199 7.62273 1.77843 7.62273C1.71823 7.62273 1.65803 7.62273 1.59911 7.62273V10.0483C1.67136 10.0483 1.73285 10.0483 1.79435 10.0483C2.3551 10.0483 2.91585 10.0457 3.47704 10.0492C3.84299 10.0514 4.0636 10.2696 4.08639 10.6413C4.09026 10.7056 4.08811 10.7702 4.08811 10.8345C4.08811 12.9539 4.08811 15.0738 4.08811 17.1932V17.4233H6.54829L6.54872 17.4237Z" fill="#CC0033"/>
</svg>
