<svg width="16" height="17" viewBox="0 0 16 17" fill="none" xmlns="http://www.w3.org/2000/svg">
    <path d="M9.99492 16.1775H5.47335C5.38157 16.1694 5.28979 16.1568 5.1975 16.1542C4.60068 16.138 4.00487 16.1147 3.42072 15.974C2.17636 15.6742 1.25197 14.97 0.701796 13.8069C0.361043 13.087 0.258614 12.3118 0.250501 11.526C0.233767 9.90879 0.219062 8.29211 0.226668 6.67543C0.230218 5.90025 0.235289 5.12052 0.42392 4.36003C0.751996 3.03448 1.52579 2.08463 2.80412 1.56666C3.4907 1.28869 4.2148 1.21021 4.946 1.20262C6.47229 1.18591 7.99908 1.17325 9.52537 1.17882C10.3265 1.18186 11.1323 1.1768 11.9218 1.34844C13.3786 1.6654 14.3999 2.4988 14.9125 3.91447C15.159 4.59446 15.2173 5.30482 15.2198 6.01974C15.2254 7.74883 15.2299 9.47841 15.2162 11.2075C15.2122 11.6986 15.1731 12.1943 15.0976 12.6799C14.9419 13.6738 14.4947 14.5198 13.7082 15.1679C12.9415 15.7993 12.0349 16.053 11.0633 16.1183C10.7079 16.1421 10.3519 16.1583 9.99593 16.1775H9.99492ZM7.72932 14.8515C7.72932 14.8439 7.72932 14.8358 7.72983 14.8282C8.12636 14.8282 8.52289 14.8398 8.91891 14.8257C9.77384 14.7948 10.6348 14.8054 11.4812 14.6991C12.6373 14.5538 13.4192 13.8885 13.7021 12.7396C13.8162 12.2753 13.8553 11.7842 13.8634 11.3037C13.8892 9.79486 13.8948 8.28502 13.8857 6.77568C13.8821 6.17164 13.8522 5.56355 13.7772 4.96407C13.6251 3.75295 12.8726 2.93525 11.6728 2.69576C11.1587 2.59297 10.6247 2.56259 10.0989 2.555C8.69986 2.53424 7.30034 2.5307 5.90081 2.5474C5.23249 2.55551 4.55606 2.57171 3.89838 2.67702C2.76862 2.85778 2.01765 3.52612 1.76259 4.6542C1.6485 5.159 1.61656 5.68861 1.60489 6.2086C1.577 7.42428 1.5694 8.64147 1.58258 9.85714C1.59171 10.6961 1.61351 11.5381 1.69617 12.372C1.77983 13.214 2.18245 13.9021 2.93089 14.3467C3.40804 14.6297 3.93996 14.7467 4.48709 14.7664C5.56767 14.8049 6.64875 14.8231 7.72932 14.85V14.8515Z"
          fill="#CC0033" stroke="white" stroke-width="0.4"/>
    <path d="M7.72995 12.5298C5.59517 12.5233 3.86251 10.7891 3.87113 8.66763C3.87924 6.53552 5.6185 4.80796 7.74415 4.82112C9.88095 4.83428 11.5928 6.54716 11.5938 8.67421C11.5949 10.8028 9.85763 12.5369 7.73046 12.5303L7.72995 12.5298ZM5.23109 8.67016C5.22856 10.0529 6.34057 11.1683 7.72539 11.1719C9.11223 11.1754 10.2288 10.0691 10.2349 8.68535C10.241 7.29601 9.12491 6.17704 7.73299 6.17603C6.34818 6.17552 5.23363 7.28639 5.23059 8.67016H5.23109Z"
          fill="#CC0033" stroke="white" stroke-width="0.4"/>
    <path d="M12.6462 4.67002C12.6447 5.17178 12.2411 5.56975 11.7376 5.5657C11.2457 5.56165 10.8466 5.1571 10.8477 4.66343C10.8487 4.16876 11.2472 3.7713 11.7437 3.76978C12.2487 3.76826 12.6478 4.16572 12.6462 4.67002Z"
          fill="#CC0033" stroke="white" stroke-width="0.4"/>
</svg>
