<svg width="14" height="17" viewBox="0 0 14 17" fill="none" xmlns="http://www.w3.org/2000/svg">
    <path d="M10.0174 0.67749C10.2652 0.783542 10.3552 0.975186 10.3685 1.25159C10.4424 2.77806 11.4615 3.93586 12.9206 4.16592C13.0445 4.18554 13.1716 4.18304 13.2972 4.19264C13.589 4.21519 13.7609 4.39806 13.7617 4.69785C13.7641 5.51035 13.7641 6.32286 13.7617 7.13578C13.7609 7.45268 13.5643 7.64767 13.2532 7.64266C12.293 7.62805 11.3788 7.41051 10.5175 6.96585C10.4815 6.94748 10.446 6.92786 10.4093 6.91032C10.4016 6.90656 10.3903 6.9099 10.3601 6.9099C10.3601 6.97086 10.3601 7.03098 10.3601 7.09069C10.3584 8.59587 10.3766 10.1019 10.3508 11.6067C10.3088 14.0467 8.54258 16.1606 6.21898 16.5919C3.48167 17.1005 0.896114 15.2934 0.328229 12.4751C-0.253378 9.5875 1.67791 6.7145 4.50321 6.27067C4.75628 6.231 5.01378 6.21639 5.26968 6.20762C5.55301 6.19802 5.74796 6.39551 5.74957 6.69112C5.75361 7.51406 5.75401 8.33701 5.74957 9.16037C5.74796 9.46433 5.55987 9.63843 5.24102 9.65179C3.91959 9.70733 3.13375 11.1925 3.8098 12.3569C4.21261 13.0509 5.00046 13.3803 5.75078 13.169C6.49747 12.959 7.02419 12.2572 7.02499 11.4505C7.02782 8.06979 7.02863 4.68908 7.02217 1.30879C7.02176 1.01861 7.09845 0.804418 7.35757 0.677908H10.017L10.0174 0.67749ZM4.84467 7.16626C4.73408 7.18296 4.65013 7.19382 4.56658 7.20801C2.40563 7.58212 0.867861 9.75158 1.16976 11.9987C1.48216 14.3218 3.46754 15.946 5.71728 15.7189C7.77935 15.5109 9.39663 13.7235 9.44668 11.5791C9.46565 10.7774 9.45273 9.97496 9.45354 9.17289C9.45435 8.18336 9.45354 7.1934 9.45354 6.20386C9.45354 6.15167 9.45192 6.09948 9.45475 6.04771C9.47897 5.64104 9.85836 5.44063 10.1833 5.67194C10.6765 6.02266 11.1996 6.30908 11.7775 6.4715C12.1238 6.56878 12.4798 6.63058 12.8302 6.70782C12.8459 6.65354 12.854 6.63893 12.854 6.62431C12.8552 6.15042 12.8532 5.67653 12.8576 5.20222C12.8584 5.10619 12.81 5.09533 12.7381 5.08406C11.1705 4.83939 9.92012 3.64359 9.55686 2.04238C9.52498 1.90251 9.50076 1.76097 9.47412 1.62527H7.93353V1.82109C7.93353 4.98803 7.93353 8.15496 7.93232 11.3219C7.93232 11.4826 7.92667 11.6451 7.90608 11.8046C7.7067 13.372 6.26499 14.4279 4.75749 14.1139C3.29035 13.8083 2.34347 12.2367 2.74951 10.7407C3.03285 9.69605 3.7093 9.0468 4.7248 8.7729C4.77 8.76079 4.83942 8.70735 4.83983 8.67228C4.8475 8.17876 4.84507 7.68483 4.84507 7.16543L4.84467 7.16626Z"
          fill="#CC0033"/>
</svg>
