<svg width="18" height="14" viewBox="0 0 18 14" fill="none" xmlns="http://www.w3.org/2000/svg">
    <path d="M17.2241 8.21479C17.2018 8.57772 17.1769 8.94024 17.1575 9.30318C17.1243 9.93052 17.0637 10.552 16.8595 11.1532C16.499 12.2134 15.7685 12.8403 14.6591 12.9519C13.7076 13.0479 12.7484 13.0786 11.7918 13.1191C9.378 13.2209 6.96376 13.178 4.55079 13.0791C3.81355 13.0487 3.07125 13.0054 2.34538 12.885C1.20605 12.6959 0.550913 11.9599 0.275553 10.8568C0.0662966 10.0173 0.059981 9.15792 0.0326134 8.30321C-0.0208586 6.61105 -0.0242269 4.91805 0.144189 3.23179C0.211976 2.55434 0.384602 1.89372 0.817431 1.34258C1.24394 0.799443 1.8094 0.454612 2.49485 0.387667C3.39124 0.300512 4.29311 0.239461 5.19329 0.222198C7.00208 0.187252 8.81171 0.165358 10.6205 0.184726C11.9021 0.198199 13.1842 0.273565 14.4642 0.349352C15.2898 0.398193 15.9896 0.73755 16.4923 1.41584C16.7883 1.81541 16.9483 2.28192 17.0127 2.76612C17.0982 3.40862 17.134 4.05787 17.1904 4.70458C17.2026 4.84353 17.2131 4.98205 17.2241 5.12099C17.2241 6.15212 17.2241 7.18366 17.2241 8.21479ZM8.99149 1.13459C7.40754 1.17248 6.20884 1.19312 5.01056 1.23311C4.27164 1.25796 3.53229 1.29374 2.79632 1.35985C2.09192 1.423 1.58709 1.77162 1.34584 2.47181C1.16605 2.9939 1.11763 3.53073 1.08563 4.07302C0.994267 5.61277 0.989636 7.15377 1.057 8.69393C1.08648 9.36928 1.08184 10.0518 1.28478 10.7082C1.37236 10.9915 1.47004 11.2694 1.69361 11.4863C1.99592 11.7789 2.36896 11.9035 2.77021 11.9423C3.3664 11.9995 3.96428 12.0496 4.56258 12.0732C7.25639 12.1806 9.95062 12.2067 12.6444 12.0791C13.3042 12.0479 13.9661 12.0185 14.6212 11.9418C15.2073 11.8732 15.625 11.5477 15.8473 10.9789C16.0607 10.4316 16.1142 9.86105 16.1475 9.28423C16.2367 7.74996 16.2443 6.21485 16.1765 4.68016C16.1462 3.99345 16.1407 3.30336 15.9538 2.63054C15.8031 2.08824 15.5147 1.67015 14.9702 1.48616C14.7138 1.39985 14.4364 1.34511 14.1661 1.33374C12.3135 1.25417 10.4605 1.18975 8.99149 1.13459Z"
          fill="#CC0033"/>
    <path d="M6.43006 6.48964C6.43006 5.83408 6.42922 5.17853 6.43006 4.52255C6.43132 3.86025 6.96352 3.54026 7.54371 3.85646C8.7622 4.52128 9.97942 5.18779 11.1954 5.85682C11.656 6.11029 11.7684 6.60122 11.448 6.96373C11.376 7.04541 11.2792 7.11152 11.1823 7.16373C9.96637 7.82055 8.74873 8.47526 7.53024 9.12703C6.96562 9.42892 6.43301 9.11103 6.4309 8.47274C6.4288 7.81171 6.43048 7.15025 6.43048 6.4888L6.43006 6.48964ZM10.2813 6.5048C9.31923 5.97808 8.39042 5.47031 7.44982 4.95537V8.02728C8.39589 7.51866 9.32386 7.01973 10.2813 6.5048Z"
          fill="#CC0033"/>
</svg>
