<svg width="10" height="19" viewBox="0 0 10 19" fill="none" xmlns="http://www.w3.org/2000/svg">
    <path d="M7.04544 6.75452C7.11554 6.75452 7.17703 6.75452 7.23853 6.75452C7.81089 6.75452 8.38283 6.75188 8.95519 6.7554C9.55508 6.75892 9.89738 7.11524 9.89781 7.73242C9.89867 8.59287 9.89867 9.45375 9.89738 10.3142C9.89652 10.9353 9.54605 11.2908 8.93455 11.2921C8.36821 11.2934 7.80143 11.2921 7.23509 11.2921H7.02953C7.02953 11.3832 7.02953 11.4575 7.02953 11.5323C7.02953 13.5699 7.03082 15.6071 7.02695 17.6447C7.02695 17.8057 7.01663 17.979 6.95987 18.126C6.82226 18.4801 6.54575 18.6692 6.17335 18.6719C5.23503 18.6794 4.29629 18.6794 3.35797 18.6719C2.88279 18.6684 2.5435 18.3252 2.50695 17.8387C2.50136 17.763 2.50093 17.6865 2.50093 17.6108C2.50093 15.5851 2.50093 13.5594 2.50093 11.5336V11.2921C2.40847 11.2921 2.33537 11.2921 2.26226 11.2921C1.8103 11.2921 1.35792 11.2961 0.905958 11.2908C0.364125 11.2846 0.00763297 10.9283 0.00419276 10.3806C-0.00139759 9.47311 -0.00139759 8.56559 0.00419276 7.65808C0.00763297 7.11436 0.355094 6.76288 0.890907 6.75584C1.40565 6.7488 1.92082 6.75276 2.43599 6.75144C2.44717 6.75144 2.45792 6.74616 2.49147 6.73736C2.49448 6.68282 2.5005 6.62167 2.50093 6.56008C2.50652 6.02164 2.49362 5.48232 2.52028 4.94477C2.56328 4.08344 2.7899 3.27358 3.26121 2.54906C3.89937 1.5672 4.8063 0.993573 5.92566 0.761305C6.14798 0.715115 6.37847 0.690481 6.60553 0.688281C7.46386 0.679923 8.32262 0.701038 9.1801 0.677723C9.57228 0.667166 9.92146 1.01689 9.97306 1.34241C9.98854 1.44007 9.99844 1.53993 9.99844 1.63891C10.0006 2.42941 10.0002 3.21947 9.9993 4.00998C9.99844 4.63507 9.65398 4.98963 9.04335 4.99447C8.5342 4.99843 8.02504 5.00063 7.51589 5.00459C7.46472 5.00459 7.41269 5.00899 7.36237 5.01823C7.11339 5.0653 7.0549 5.11677 7.04888 5.37323C7.03856 5.82721 7.04587 6.28207 7.04587 6.75408L7.04544 6.75452ZM5.99403 17.6117V17.3685C5.99403 15.2662 6.00091 13.1643 5.98887 11.062C5.98586 10.5588 6.11831 10.1998 6.80807 10.2306C7.42473 10.2583 8.04397 10.2363 8.66191 10.2363H8.85371V7.81072C8.77931 7.81072 8.71696 7.81072 8.6546 7.81072C7.97946 7.81072 7.30389 7.81336 6.62875 7.8094C6.25506 7.8072 6.00822 7.59781 6.0022 7.23401C5.99188 6.57284 5.99231 5.91035 6.02499 5.2505C6.05165 4.70854 6.30107 4.28403 6.81968 4.0852C7.01448 4.01042 7.22907 3.96599 7.43677 3.95543C7.88228 3.93299 8.32907 3.94179 8.77544 3.93695C8.8365 3.93651 8.89757 3.93123 8.95605 3.92815V1.67322C8.0302 1.70797 7.11468 1.70929 6.2056 1.78803C5.61733 1.83906 5.0871 2.11444 4.63816 2.52135C3.90754 3.1834 3.5962 4.04649 3.55062 5.01471C3.51751 5.71591 3.53772 6.41975 3.53342 7.12228C3.53041 7.58373 3.30809 7.80984 2.85484 7.81072C2.31128 7.81204 1.7673 7.81072 1.22375 7.81072C1.16354 7.81072 1.10334 7.81072 1.04443 7.81072V10.2363C1.11667 10.2363 1.17816 10.2363 1.23966 10.2363C1.80041 10.2363 2.36117 10.2337 2.92235 10.2372C3.2883 10.2394 3.50891 10.4576 3.5317 10.8293C3.53557 10.8935 3.53342 10.9582 3.53342 11.0224C3.53342 13.1419 3.53342 15.2618 3.53342 17.3812V17.6113H5.9936L5.99403 17.6117Z"
          fill="#CC0033"/>
</svg>
