<svg width="16" height="17" viewBox="0 0 16 17" fill="none" xmlns="http://www.w3.org/2000/svg">
<path d="M10.5486 15.9895H6.02706C5.93528 15.9814 5.8435 15.9688 5.75121 15.9663C5.15439 15.95 4.55858 15.9268 3.97443 15.786C2.73007 15.4863 1.80568 14.782 1.25551 13.619C0.914754 12.899 0.812325 12.1238 0.804212 11.338C0.787478 9.7208 0.772773 8.10412 0.780379 6.48744C0.783929 5.71227 0.789 4.93253 0.977631 4.17204C1.30571 2.8465 2.0795 1.89664 3.35783 1.37867C4.04441 1.10071 4.76851 1.02223 5.49971 1.01463C7.026 0.997922 8.55279 0.985264 10.0791 0.990834C10.8803 0.993872 11.686 0.988809 12.4755 1.16045C13.9323 1.47741 14.9536 2.31081 15.4662 3.72648C15.7127 4.40647 15.771 5.11683 15.7735 5.83176C15.7791 7.56084 15.7837 9.29043 15.77 11.0195C15.7659 11.5106 15.7269 12.0063 15.6513 12.4919C15.4956 13.4858 15.0484 14.3319 14.2619 14.9799C13.4952 15.6113 12.5886 15.865 11.617 15.9303C11.2616 15.9541 10.9056 15.9703 10.5496 15.9895H10.5486ZM8.28303 14.6635C8.28303 14.6559 8.28303 14.6478 8.28354 14.6402C8.68007 14.6402 9.0766 14.6518 9.47262 14.6377C10.3275 14.6068 11.1886 14.6174 12.0349 14.5111C13.191 14.3658 13.9729 13.7005 14.2558 12.5516C14.3699 12.0873 14.409 11.5962 14.4171 11.1157C14.443 9.60688 14.4485 8.09703 14.4394 6.58769C14.4359 5.98365 14.4059 5.37556 14.3309 4.77608C14.1788 3.56496 13.4263 2.74726 12.2265 2.50777C11.7124 2.40498 11.1784 2.37461 10.6526 2.36701C9.25357 2.34625 7.85405 2.34271 6.45452 2.35942C5.7862 2.36752 5.10977 2.38372 4.45209 2.48903C3.32234 2.66979 2.57136 3.33813 2.3163 4.46621C2.20221 4.97101 2.17027 5.50062 2.1586 6.02061C2.13071 7.23629 2.12311 8.45348 2.13629 9.66915C2.14542 10.5081 2.16722 11.3501 2.24988 12.184C2.33354 13.0261 2.73616 13.7141 3.4846 14.1587C3.96175 14.4417 4.49367 14.5587 5.04081 14.5784C6.12138 14.6169 7.20246 14.6351 8.28303 14.662V14.6635Z" fill="#CC0033" stroke="white" stroke-width="0.4"/>
<path d="M8.28268 12.3421C6.14791 12.3355 4.41524 10.6014 4.42386 8.47989C4.43197 6.34777 6.17123 4.62021 8.29688 4.63338C10.4337 4.64654 12.1456 6.35942 12.1466 8.48647C12.1476 10.615 10.4104 12.3492 8.28319 12.3426L8.28268 12.3421ZM5.78383 8.48242C5.78129 9.86518 6.8933 10.9806 8.27812 10.9841C9.66496 10.9877 10.7815 9.88138 10.7876 8.49761C10.7937 7.10827 9.67764 5.9893 8.28573 5.98829C6.90091 5.98778 5.78636 7.09865 5.78332 8.48242H5.78383Z" fill="#CC0033" stroke="white" stroke-width="0.4"/>
<path d="M13.199 4.48154C13.1975 4.9833 12.7938 5.38127 12.2903 5.37722C11.7984 5.37317 11.3994 4.96862 11.4004 4.47496C11.4014 3.98028 11.8 3.58282 12.2964 3.5813C12.8014 3.57978 13.2005 3.97725 13.199 4.48154Z" fill="#CC0033" stroke="white" stroke-width="0.4"/>
</svg>
