<?xml version="1.0" encoding="UTF-8"?><svg id="Warstwa_1" xmlns="http://www.w3.org/2000/svg" viewBox="0 0 24.5 24.08"><path d="m4.72,14.72h-.08c-.52,0-.93.41-.93.93v.1c0,.52.41.93.93.93h.08c.52,0,.93-.41.93-.93v-.1c0-.52-.41-.93-.93-.93Z" style="fill:#c03;"/><path d="m8.48,14.72h-.08c-.52,0-.93.41-.93.93v.1c0,.52.41.93.93.93h.08c.52,0,.93-.41.93-.93v-.1c0-.52-.41-.93-.93-.93Z" style="fill:#c03;"/><path d="m12.27,14.72h-.1c-.52,0-.93.41-.93.93v.1c0,.52.41.93.93.93h.1c.52,0,.93-.41.93-.93v-.1c0-.52-.41-.93-.93-.93Z" style="fill:#c03;"/><path d="m4.72,10.91h-.08c-.52,0-.93.41-.93.93v.1c0,.52.41.93.93.93h.08c.52,0,.93-.41.93-.93v-.1c0-.52-.41-.93-.93-.93Z" style="fill:#c03;"/><path d="m8.48,10.91h-.08c-.52,0-.93.41-.93.93v.1c0,.52.41.93.93.93h.08c.52,0,.93-.41.93-.93v-.1c0-.52-.41-.93-.93-.93Z" style="fill:#c03;"/><path d="m12.27,10.91h-.1c-.52,0-.93.41-.93.93v.1c0,.52.41.93.93.93h.1c.52,0,.93-.41.93-.93v-.1c0-.52-.41-.93-.93-.93Z" style="fill:#c03;"/><path d="m16.04,14.72h-.1c-.52,0-.93.41-.93.93v.1c0,.52.41.93.93.93h.1c.52,0,.93-.41.93-.93v-.1c.03-.52-.41-.93-.93-.93Z" style="fill:#c03;"/><path d="m19.83,14.72h-.1c-.52,0-.93.41-.93.93v.1c0,.52.41.93.93.93h.1c.52,0,.93-.41.93-.93v-.1c0-.52-.41-.93-.93-.93Z" style="fill:#c03;"/><path d="m16.04,10.91h-.1c-.52,0-.93.41-.93.93v.1c0,.52.41.93.93.93h.1c.52,0,.93-.41.93-.93v-.1c.03-.52-.41-.93-.93-.93Z" style="fill:#c03;"/><path d="m19.83,10.91h-.1c-.52,0-.93.41-.93.93v.1c0,.52.41.93.93.93h.1c.52,0,.93-.41.93-.93v-.1c0-.52-.41-.93-.93-.93Z" style="fill:#c03;"/><path d="m4.72,18.51h-.08c-.52,0-.93.41-.93.93v.1c0,.52.41.93.93.93h.08c.52,0,.93-.41.93-.93v-.1c0-.49-.41-.93-.93-.93Z" style="fill:#c03;"/><path d="m8.48,18.51h-.08c-.52,0-.93.41-.93.93v.1c0,.52.41.93.93.93h.08c.52,0,.93-.41.93-.93v-.1c0-.49-.41-.93-.93-.93Z" style="fill:#c03;"/><path d="m12.27,18.51h-.1c-.52,0-.93.41-.93.93v.1c0,.52.41.93.93.93h.1c.52,0,.93-.41.93-.93v-.1c0-.49-.41-.93-.93-.93Z" style="fill:#c03;"/><path d="m16.04,18.51h-.1c-.52,0-.93.41-.93.93v.1c0,.52.41.93.93.93h.1c.52,0,.93-.41.93-.93v-.1c.03-.49-.41-.93-.93-.93Z" style="fill:#c03;"/><path d="m19.83,18.51h-.1c-.52,0-.93.41-.93.93v.1c0,.52.41.93.93.93h.1c.52,0,.93-.41.93-.93v-.1c0-.49-.41-.93-.93-.93Z" style="fill:#c03;"/><path d="m24.47,7.89v-2.09c0-1.6-1.29-2.89-2.86-2.89h-1.52v-.9C20.09.9,19.18,0,18.08,0s-2.01.9-2.01,2.01v.9h-7.63v-.9c0-1.11-.9-2.01-2.01-2.01s-2.01.9-2.01,2.01v.9h-1.52c-1.6,0-2.89,1.29-2.89,2.89v15.42c0,1.57,1.29,2.86,2.89,2.86h18.75c1.57,0,2.86-1.29,2.86-2.86l-.03-13.33Zm-7.22-5.88c0-.44.36-.8.8-.8s.8.36.8.8v1.91c0,.44-.36.8-.8.8s-.8-.36-.8-.8v-1.91Zm-11.65,0c0-.44.36-.8.8-.8s.8.36.8.8v1.91c0,.44-.36.8-.8.8s-.8-.36-.8-.8v-1.91Zm-2.73,2.11h1.55c.1,1.01.95,1.8,2.01,1.8s1.88-.8,1.99-1.8h7.66c.1,1.01.95,1.8,1.99,1.8s1.88-.8,1.99-1.8h1.55c.9,0,1.65.75,1.65,1.68v1.5H1.19v-1.5c0-.93.75-1.68,1.68-1.68Zm18.75,18.75H2.86c-.93,0-1.68-.75-1.68-1.65v-12.74h22.07v12.74c0,.9-.75,1.65-1.65,1.65Z" style="fill:#c03;"/></svg>