<?xml version="1.0" encoding="UTF-8"?><svg id="Warstwa_1" xmlns="http://www.w3.org/2000/svg" viewBox="0 0 16.2 24.31"><path d="m8.1,0C3.66,0,0,3.47,0,8.41c0,1.77.42,2.99,1.19,4.35l6.37,11.22c.07.13.19.23.33.28.14.05.29.05.43,0,.14-.05.26-.15.33-.28l6.37-11.22c.77-1.36,1.19-2.59,1.19-4.35C16.2,3.47,12.55,0,8.1,0Zm0,1.25c3.81,0,6.86,2.82,6.86,7.17,0,1.58-.31,2.48-1.02,3.74l-5.83,10.26L2.27,12.15c-.72-1.26-1.02-2.16-1.02-3.74C1.25,4.07,4.29,1.25,8.1,1.25Zm0,2.49c-2.4,0-4.36,1.96-4.36,4.36s1.96,4.36,4.36,4.36,4.36-1.96,4.36-4.36-1.96-4.36-4.36-4.36Zm0,1.25c1.73,0,3.12,1.39,3.12,3.12s-1.39,3.12-3.12,3.12-3.12-1.39-3.12-3.12,1.39-3.12,3.12-3.12Z" style="fill:#c03;"/></svg>