<?xml version="1.0" encoding="UTF-8"?><svg id="Warstwa_1" xmlns="http://www.w3.org/2000/svg" viewBox="0 0 24.39 23.98"><path d="m24.36,7.86v-2.08c0-1.59-1.28-2.88-2.85-2.88h-1.51v-.9C20,.9,19.1,0,18,0s-2,.9-2,2v.9h-7.6v-.9c0-1.1-.9-2-2-2s-2,.9-2,2v.9h-1.51c-1.59,0-2.88,1.28-2.88,2.88v15.35c0,1.57,1.28,2.85,2.88,2.85h18.66c1.57,0,2.85-1.28,2.85-2.85l-.03-13.27Zm-7.19-5.85c0-.44.36-.8.8-.8s.8.36.8.8v1.9c0,.44-.36.8-.8.8s-.8-.36-.8-.8v-1.9Zm-11.6,0c0-.44.36-.8.8-.8s.8.36.8.8v1.9c0,.44-.36.8-.8.8s-.8-.36-.8-.8v-1.9Zm-2.72,2.11h1.54c.1,1,.95,1.8,2,1.8s1.87-.8,1.98-1.8h7.62c.1,1,.95,1.8,1.98,1.8s1.87-.8,1.98-1.8h1.54c.9,0,1.64.74,1.64,1.67v1.49H1.18v-1.49c0-.92.74-1.67,1.67-1.67Zm18.66,18.66H2.85c-.92,0-1.67-.74-1.67-1.64v-12.68h21.97v12.68c0,.9-.74,1.64-1.64,1.64Z" style="fill:#c03;"/><path d="m15.85,14.93c-.19,0-.36-.07-.49-.19l-3.18-2.87-3.18,2.87c-.18.14-.42.18-.65.12-.22-.06-.4-.22-.47-.42-.07-.2-.02-.42.13-.59l3.67-3.32c.13-.12.31-.18.5-.18s.36.07.5.18l3.67,3.32c.13.12.2.28.2.45,0,.17-.07.33-.2.45-.13.12-.31.19-.49.19h0Z" style="fill:#c03;"/><path d="m12.18,21.25c-.19,0-.36-.07-.5-.18l-3.67-3.32c-.16-.16-.22-.39-.15-.6.07-.21.25-.37.48-.43.23-.06.48,0,.66.14l3.18,2.87,3.18-2.87c.18-.15.43-.2.66-.14.23.06.41.22.48.43.07.21,0,.43-.15.6l-3.66,3.32c-.13.12-.32.19-.5.18h0Z" style="fill:#c03;"/></svg>