<svg width="14" height="15" viewBox="0 0 14 15" fill="none" xmlns="http://www.w3.org/2000/svg">
    <g id="Group 6964">
        <path id="Vector"
              d="M6.9384 3.63538C6.17787 3.64977 5.45373 3.96948 4.92414 4.52459C4.39455 5.07971 4.10145 5.825 4.10954 6.59856C4.10954 7.64609 4.65884 8.61445 5.55126 9.13822C6.44317 9.66198 7.54228 9.66198 8.4347 9.13822C9.32661 8.61445 9.87642 7.64609 9.87642 6.59856C9.8845 5.80598 9.57676 5.04373 9.02341 4.48553C8.47007 3.92733 7.71763 3.62099 6.93891 3.6359L6.9384 3.63538ZM6.9384 4.2861C7.54834 4.27222 8.13857 4.5102 8.57316 4.94607C9.00825 5.38142 9.25132 5.97766 9.24728 6.59856C9.25789 7.21484 9.02493 7.80954 8.59994 8.249C8.17546 8.68847 7.59483 8.93673 6.98894 8.93673C6.38304 8.93673 5.80241 8.68898 5.37793 8.249C4.95345 7.80954 4.71998 7.21484 4.7311 6.59856C4.72706 5.99565 4.95648 5.41535 5.36934 4.98256C5.7822 4.55029 6.34615 4.29998 6.93891 4.28661L6.9384 4.2861Z"
              fill="#CC0033"/>
        <path id="Vector_2"
              d="M4.00066 12.5826C4.16287 12.6633 4.26596 12.8313 4.26596 13.0154V14.2212H4.89712V13.019C4.89712 12.8113 4.84002 12.6078 4.73289 12.4315C4.62576 12.2552 4.47214 12.1123 4.28971 12.0192C3.37859 11.5541 2.57764 10.8931 1.94193 10.083C0.632098 8.41407 0.276847 6.16946 1.00655 4.16796C1.41436 3.04693 2.03642 2.01894 2.83637 1.14361C2.99605 0.96885 3.21891 0.867593 3.45338 0.862453L3.44833 0.858855C3.46147 0.858855 3.47461 0.858855 3.48774 0.858855C3.71211 0.863481 3.92638 0.956514 4.08505 1.11842C4.24373 1.28033 4.33418 1.49827 4.33822 1.72648C4.34176 1.95521 4.25889 2.17622 4.10577 2.34327C3.46147 3.04796 2.96068 3.87498 2.63171 4.77704C2.11323 6.19824 2.36489 7.79214 3.29471 8.9769C4.02239 9.9026 5.02801 10.56 6.15844 10.8484C6.71128 10.9897 7.29039 10.9897 7.84323 10.8484C8.97366 10.56 9.97927 9.9026 10.707 8.9769C11.6373 7.79265 11.8899 6.19875 11.3715 4.77704C11.043 3.87498 10.5417 3.04745 9.89741 2.34327C9.69578 2.11095 9.62857 1.78816 9.72054 1.49261C9.81251 1.19706 10.05 0.971934 10.3461 0.899974C10.6423 0.827501 10.9546 0.918992 11.1678 1.14001C11.9688 2.01534 12.5908 3.04334 12.9997 4.16436C13.7294 6.16637 13.3741 8.41099 12.0638 10.0794C11.4276 10.89 10.6261 11.5505 9.71448 12.0156C9.53205 12.1087 9.37894 12.2516 9.27231 12.4279C9.16518 12.6047 9.10909 12.8077 9.10909 13.0154V14.2212H9.73469V13.0164C9.73469 12.8334 9.83728 12.6664 9.99848 12.5851C10.9899 12.0783 11.8622 11.3598 12.5545 10.4783C14.0017 8.6356 14.3939 6.15558 13.5874 3.94437C13.1503 2.74522 12.4842 1.6463 11.6277 0.709796C11.3528 0.408595 10.9702 0.233837 10.567 0.224585C10.1733 0.215333 9.7918 0.364905 9.50578 0.640407C9.21976 0.915908 9.05249 1.29524 9.04036 1.69564C9.02773 2.09604 9.17124 2.48514 9.43958 2.77863H9.43149C10.0197 3.42215 10.4775 4.17721 10.7777 5.00063C11.2199 6.21314 11.0056 7.57215 10.2122 8.58266C9.57046 9.3994 8.6836 9.9797 7.68657 10.2346C7.23228 10.3508 6.75676 10.3508 6.30246 10.2346C5.30594 9.9797 4.41908 9.3994 3.77831 8.58266C2.98443 7.57266 2.76966 6.21314 3.21133 5.00063C3.512 4.1767 3.97034 3.42164 4.55905 2.77863C4.82233 2.49079 4.96585 2.11043 4.95877 1.71723C4.9522 1.32453 4.79555 0.948804 4.52318 0.670733C4.24979 0.392661 3.88191 0.232295 3.49532 0.224585V0.221501C3.07034 0.212763 2.66152 0.389577 2.37197 0.706198C1.51492 1.64373 0.848886 2.74316 0.411772 3.94283C-0.393732 6.15506 -0.00108674 8.63458 1.44619 10.4767C2.1385 11.3577 3.0097 12.0758 4.00066 12.5821V12.5826Z"
              fill="#CC0033"/>
    </g>
</svg>
