<svg width="10" height="8" viewBox="0 0 10 8" fill="none" xmlns="http://www.w3.org/2000/svg">
    <path d="M8.52569 0.25515C8.30072 0.262738 8.08755 0.358769 7.93154 0.522725C6.27608 2.20022 5.01168 3.60134 3.47536 5.18691L1.83866 3.78874V3.78883C1.66328 3.63887 1.43606 3.5656 1.20718 3.5853C0.97837 3.60499 0.76662 3.71601 0.618843 3.89371C0.47098 4.0715 0.399234 4.30141 0.419336 4.53277C0.439439 4.76413 0.549778 4.97787 0.72596 5.12692L2.97296 7.04941V7.04932C3.13834 7.19016 3.34983 7.26324 3.56576 7.25412C3.7818 7.24509 3.98656 7.15448 4.13972 7.00019C6.0013 5.11384 7.32649 3.60728 9.15237 1.75715V1.75724C9.3206 1.59282 9.41576 1.36651 9.41601 1.13002C9.41637 0.893436 9.32185 0.666957 9.15406 0.502087C8.98627 0.337219 8.75961 0.248156 8.52579 0.255279L8.52569 0.25515Z"
          fill="#CC0033"/>
</svg>
