<svg width="101" height="28" viewBox="0 0 101 28" fill="none" xmlns="http://www.w3.org/2000/svg">
    <path d="M17.348 16.3587C18.1037 16.6029 18.7181 17.0542 19.1843 17.7101C19.5609 18.2404 19.8175 18.8126 19.9541 19.429C20.0906 20.0454 20.1589 20.6339 20.1589 21.1921C20.1589 22.6086 19.8717 23.8088 19.2949 24.7927C18.5133 26.1185 17.308 26.7814 15.6788 26.7814H11.0293V16.1261H15.6788C16.3474 16.1354 16.903 16.2122 17.348 16.3587ZM13.2164 17.9776V24.9299H15.2975C16.3639 24.9299 17.1055 24.4136 17.5245 23.3762C17.7529 22.8063 17.8683 22.1295 17.8683 21.3433C17.8683 20.2617 17.6964 19.429 17.3527 18.8475C17.0066 18.2683 16.3215 17.9776 15.2975 17.9776H13.2164Z"
          fill="white"/>
    <path d="M23.5253 16.1279H26.0749L29.8887 26.7833H27.4474L26.7341 24.5922H22.7625L22.0304 26.7833H19.6738L23.5229 16.1279H23.5253ZM23.377 22.757H26.1385L24.7754 18.5632L23.3746 22.757H23.377Z"
          fill="white"/>
    <path d="M30.4746 16.1279H32.8382L37.1182 23.5571V16.1279H39.2181V26.7809H36.9651L32.5769 19.2215V26.7809H30.4746V16.1279Z"
          fill="white"/>
    <path d="M41.616 17.24C42.4847 16.3631 43.5888 15.9258 44.9307 15.9258C46.7246 15.9258 48.0383 16.5143 48.8693 17.6889C49.3284 18.3495 49.5732 19.0124 49.6062 19.6753H47.3532C47.2072 19.1659 47.026 18.7798 46.8023 18.5193C46.3998 18.0564 45.8065 17.8238 45.0178 17.8238C44.2292 17.8238 43.5818 18.1517 43.118 18.803C42.6542 19.4566 42.4235 20.38 42.4235 21.5756C42.4235 22.7711 42.6683 23.6666 43.158 24.2598C43.6477 24.8552 44.2692 25.153 45.0225 25.153C45.7759 25.153 46.3833 24.8971 46.7905 24.3877C47.0166 24.1132 47.2025 23.7015 47.3485 23.1503H49.5873C49.3943 24.3109 48.9023 25.2553 48.1065 25.9833C47.3132 26.7114 46.2962 27.0742 45.0555 27.0742C43.5229 27.0742 42.3152 26.5834 41.4371 25.5995C40.559 24.611 40.1211 23.2573 40.1211 21.5384C40.1211 19.6776 40.6202 18.2425 41.6184 17.2353"
          fill="white"/>
    <path d="M58.5127 18.012H52.9238V20.2752H58.0442V22.1266H52.9238V24.8643H58.7764V26.7809H50.7227V16.1279H58.5127V18.012Z"
          fill="white"/>
    <path d="M60.6753 20.9271C60.7201 21.2434 60.8119 21.4807 60.9414 21.6365C61.1862 21.9226 61.6005 22.0622 62.1914 22.0622C62.5446 22.0622 62.8318 22.025 63.0507 21.9505C63.4698 21.8063 63.6769 21.5388 63.6769 21.1457C63.6769 20.9178 63.5757 20.741 63.3709 20.6154C63.1661 20.4921 62.8412 20.3851 62.3986 20.2921L61.6406 20.127C60.8943 19.9641 60.3811 19.7874 60.1033 19.5966C59.6301 19.278 59.3947 18.7779 59.3947 18.0964C59.3947 17.4777 59.6254 16.9613 60.0868 16.5519C60.5482 16.1426 61.2286 15.9355 62.1232 15.9355C62.8718 15.9355 63.5098 16.1286 64.0371 16.517C64.5668 16.9055 64.8423 17.466 64.8682 18.2011H63.4627C63.4345 17.7847 63.2461 17.4893 62.8954 17.3125C62.6623 17.1986 62.3727 17.1404 62.0219 17.1404C61.6359 17.1404 61.3275 17.2148 61.0944 17.3637C60.866 17.5149 60.7507 17.7266 60.7507 17.994C60.7507 18.2406 60.8637 18.4243 61.0897 18.5476C61.238 18.6267 61.5488 18.7244 62.0219 18.8337L63.2532 19.1198C63.7923 19.2454 64.1972 19.4106 64.4656 19.6222C64.8846 19.9479 65.0918 20.42 65.0918 21.0364C65.0918 21.6528 64.8446 22.1924 64.3502 22.6134C63.8535 23.0321 63.1543 23.2415 62.2503 23.2415C61.3463 23.2415 60.6024 23.0344 60.0727 22.6227C59.543 22.211 59.2793 21.6435 59.2793 20.9225H60.6753V20.9271Z"
          fill="white"/>
    <path d="M70.5065 16.1379V17.3661H68.4112V23.067H66.9375V17.3661H64.8281V16.1379H70.5065Z" fill="white"/>
    <path d="M70.8742 16.1377H72.3621V20.3919C72.3621 20.8687 72.4186 21.2153 72.5316 21.434C72.7082 21.8224 73.0943 22.0178 73.6875 22.0178C74.2808 22.0178 74.6598 21.8224 74.8387 21.434C74.9517 21.2153 75.0082 20.8687 75.0082 20.3919V16.1377H76.4961V20.3942C76.4961 21.1293 76.3807 21.7038 76.1477 22.1131C75.7168 22.8668 74.8976 23.2412 73.6852 23.2412C72.4728 23.2412 71.6488 22.8644 71.2156 22.1131C70.9849 21.7038 70.8672 21.1293 70.8672 20.3942V16.1377H70.8742Z"
          fill="white"/>
    <path d="M81.528 16.2891C82.02 16.4496 82.4179 16.7427 82.7239 17.166C82.9664 17.5103 83.1359 17.8848 83.223 18.2848C83.3125 18.6849 83.3572 19.0664 83.3572 19.4315C83.3572 20.3526 83.1689 21.1318 82.7946 21.7715C82.2861 22.6321 81.5045 23.0647 80.4427 23.0647H77.4199V16.1379H80.4427C80.8759 16.1449 81.2408 16.1961 81.528 16.2891ZM78.8442 17.3405V21.8599H80.1979C80.8877 21.8599 81.3703 21.5249 81.6434 20.8504C81.7917 20.4805 81.8694 20.0386 81.8694 19.5292C81.8694 18.8244 81.7564 18.2848 81.5327 17.9057C81.3091 17.5289 80.8641 17.3405 80.1979 17.3405H78.8442Z"
          fill="white"/>
    <path d="M85.5217 16.1379H84.0645V23.0647H85.5217V16.1379Z" fill="white"/>
    <path d="M91.8001 22.4484C91.2704 22.9857 90.5053 23.2579 89.5024 23.2579C88.4995 23.2579 87.7368 22.9881 87.2071 22.4484C86.4961 21.7879 86.1406 20.8365 86.1406 19.5921C86.1406 18.3477 86.4961 17.3708 87.2071 16.7382C87.7368 16.1985 88.4995 15.9287 89.5024 15.9287C90.5053 15.9287 91.2704 16.1985 91.8001 16.7382C92.5064 17.3731 92.8619 18.3245 92.8619 19.5921C92.8619 20.8598 92.5087 21.7902 91.8001 22.4484ZM90.8843 21.3971C91.2257 20.9738 91.3976 20.3713 91.3976 19.5921C91.3976 18.8129 91.2257 18.2151 90.8843 17.7918C90.5453 17.3662 90.0839 17.1545 89.5024 17.1545C88.9209 17.1545 88.4595 17.3638 88.1134 17.7872C87.7674 18.2105 87.5955 18.8129 87.5955 19.5898C87.5955 20.3667 87.7674 20.9738 88.1134 21.3948C88.4595 21.8158 88.9209 22.0274 89.5024 22.0274C90.0839 22.0274 90.543 21.8158 90.8843 21.3948"
          fill="white"/>
    <path d="M10.5963 3.00982H2.99455V6.08942H9.96063V8.60381H2.99455V12.33H10.9541V14.9351H0V0.444263H10.5963V3.00982ZM21.8352 4.96597C21.6022 3.97743 21.0372 3.28429 20.1355 2.89352C19.6293 2.67488 19.069 2.56788 18.4546 2.56788C17.2728 2.56788 16.3029 3.00749 15.5424 3.88672C14.782 4.76594 14.4054 6.08942 14.4054 7.85717C14.4054 9.62491 14.815 10.8949 15.639 11.6346C16.4629 12.3742 17.3952 12.7441 18.4452 12.7441C19.4952 12.7441 20.3168 12.4533 20.9712 11.8695C21.6281 11.288 22.0353 10.5227 22.1884 9.57607H18.7936V7.15937H24.9028V14.9351H22.8734L22.565 13.1255C21.9741 13.8117 21.4444 14.2932 20.9689 14.5746C20.1614 15.0631 19.1679 15.3096 17.9861 15.3096C16.0439 15.3096 14.4501 14.6444 13.2094 13.3139C11.9146 11.9788 11.2696 10.1506 11.2696 7.83158C11.2696 5.51258 11.9217 3.6076 13.2306 2.19107C14.5348 0.779204 16.2652 0.0697795 18.4146 0.0697795C20.2767 0.0697795 21.774 0.537302 22.9064 1.47002C24.0364 2.40274 24.6862 3.56806 24.851 4.96597H21.8376H21.8352ZM26.2988 0.444263H29.4134V9.3458C29.4134 10.339 29.5335 11.067 29.7712 11.5252C30.1409 12.337 30.9483 12.7441 32.189 12.7441C33.4297 12.7441 34.2278 12.337 34.5997 11.5252C34.8375 11.067 34.9576 10.339 34.9576 9.3458V0.444263H38.0722V9.35045C38.0722 10.8926 37.8297 12.0905 37.3471 12.9511C36.4478 14.5234 34.7292 15.3119 32.1914 15.3119C29.6535 15.3119 27.935 14.5234 27.0262 12.9511C26.5413 12.0928 26.3012 10.8926 26.3012 9.35045V0.444263H26.2988ZM49.1558 0.81642C49.6949 1.04437 50.1539 1.38396 50.5283 1.83055C50.839 2.19805 51.0838 2.6051 51.2651 3.04936C51.4464 3.49362 51.5382 4.00301 51.5382 4.57288C51.5382 5.25905 51.3616 5.93591 51.0109 6.60346C50.6601 7.26869 50.081 7.73854 49.2688 8.01301C49.9468 8.28282 50.4247 8.66428 50.7072 9.15972C50.9897 9.65515 51.1286 10.4088 51.1286 11.4252V12.3975C51.1286 13.0604 51.1545 13.5093 51.2086 13.7466C51.2887 14.121 51.4794 14.3955 51.7736 14.5723V14.9351H48.3906C48.2988 14.6141 48.2329 14.356 48.1905 14.1606C48.1105 13.7535 48.0681 13.3372 48.0634 12.9115L48.0422 11.5648C48.0304 10.6414 47.868 10.025 47.5572 9.71795C47.2465 9.4086 46.6627 9.25508 45.8104 9.25508H42.8182V14.9375H39.8237V0.444263H46.8369C47.8421 0.46287 48.6119 0.588473 49.1534 0.81642M42.8182 2.96097V6.85467H46.1165C46.7733 6.85467 47.263 6.77559 47.5926 6.61742C48.1717 6.34295 48.4636 5.79867 48.4636 4.98691C48.4636 4.10768 48.1835 3.51921 47.6208 3.21683C47.3077 3.04704 46.8345 2.96097 46.2036 2.96097H42.8206H42.8182ZM62.3416 0.81642C62.8831 1.04437 63.3398 1.38396 63.7165 1.83055C64.0273 2.19805 64.2721 2.6051 64.4534 3.04936C64.6346 3.49362 64.7264 4.00301 64.7264 4.57288C64.7264 5.25905 64.5499 5.93591 64.1991 6.60346C63.846 7.26869 63.2645 7.73854 62.4594 8.01301C63.135 8.28282 63.6129 8.66428 63.8954 9.15972C64.1779 9.65515 64.3192 10.4088 64.3192 11.4252V12.3975C64.3192 13.0604 64.3474 13.5093 64.3992 13.7466C64.4816 14.121 64.6676 14.3955 64.9666 14.5723V14.9351H61.5836C61.4894 14.6141 61.4235 14.356 61.3835 14.1606C61.3034 13.7535 61.2634 13.3372 61.254 12.9115L61.2352 11.5648C61.221 10.6414 61.061 10.025 60.7478 9.71795C60.4371 9.4086 59.8556 9.25508 59.0034 9.25508H56.0088V14.9375H53.0143V0.444263H60.0298C61.0327 0.46287 61.8049 0.588473 62.3416 0.81642ZM56.0088 2.96097V6.85467H59.3071C59.9615 6.85467 60.4536 6.77559 60.7808 6.61742C61.3599 6.34295 61.6495 5.79867 61.6495 4.98691C61.6495 4.10768 61.3694 3.51921 60.8091 3.21683C60.4959 3.04704 60.0228 2.96097 59.3918 2.96097H56.0088ZM77.4297 13.6489C76.3209 14.7746 74.7177 15.3398 72.6225 15.3398C70.5272 15.3398 68.924 14.7746 67.8175 13.6489C66.3297 12.2649 65.5857 10.2715 65.5857 7.67109C65.5857 5.07064 66.3297 3.0261 67.8175 1.69099C68.924 0.565214 70.5272 0 72.6225 0C74.7177 0 76.3209 0.565214 77.4297 1.69099C78.9082 3.02378 79.6474 5.01482 79.6474 7.67109C79.6474 10.3274 78.9082 12.2649 77.4297 13.6489ZM75.5134 11.4462C76.2244 10.56 76.5822 9.30393 76.5822 7.67109C76.5822 6.03825 76.2244 4.7892 75.5134 3.90067C74.8001 3.01215 73.8349 2.57021 72.6225 2.57021C71.41 2.57021 70.4401 3.01215 69.7174 3.89835C68.9946 4.78222 68.6344 6.0429 68.6344 7.67341C68.6344 9.30393 68.9946 10.5646 69.7174 11.4485C70.4401 12.3324 71.41 12.7766 72.6225 12.7766C73.8349 12.7766 74.8001 12.3324 75.5134 11.4485M95.8066 0.444263H92.3365L88.0425 12.33H83.8402V0.444263H80.7774V14.9351H90.3096L91.303 11.9555H96.7083L97.6759 14.9351H101L95.8066 0.444263ZM92.1364 9.45744L94.041 3.75413L95.8937 9.45744H92.1364Z"
          fill="white"/>
</svg>
