<svg width="18" height="18" viewBox="0 0 18 18" fill="none" xmlns="http://www.w3.org/2000/svg">
<path id="Vector" d="M7.85809 15.1889C9.68226 15.1889 11.3547 14.5338 12.659 13.4486L16.6781 17.4683L17.6528 16.4934L13.6338 12.4737C14.7176 11.1705 15.3725 9.49638 15.3725 7.67336C15.3725 3.52942 12.0013 0.15918 7.85811 0.15918C3.71496 0.15918 0.34375 3.52942 0.34375 7.67336C0.34375 11.8173 3.71496 15.1888 7.85811 15.1888L7.85809 15.1889ZM7.85809 1.5369C11.2416 1.5369 13.9937 4.28935 13.9937 7.67209C13.9937 11.0561 11.2416 13.8086 7.85809 13.8086C4.47585 13.8086 1.7238 11.0561 1.7238 7.67209C1.72244 4.28935 4.47438 1.5369 7.85809 1.5369Z" fill="white"/>
</svg>
