<svg width="19" height="18" viewBox="0 0 19 18" fill="none" xmlns="http://www.w3.org/2000/svg">
<path d="M8.39193 15.6296C10.2889 15.6296 12.0281 14.9484 13.3845 13.8199L17.564 18L18.5776 16.9862L14.3982 12.8061C15.5252 11.4508 16.2063 9.70991 16.2063 7.81412C16.2063 3.50477 12.7005 0 8.39194 0C4.08342 0 0.577637 3.50477 0.577637 7.81412C0.577637 12.1235 4.08342 15.6296 8.39194 15.6296L8.39193 15.6296ZM8.39193 1.43271C11.9105 1.43271 14.7724 4.29503 14.7724 7.8128C14.7724 11.3319 11.9105 14.1942 8.39193 14.1942C4.87467 14.1942 2.01277 11.3319 2.01277 7.8128C2.01136 4.29503 4.87315 1.43271 8.39193 1.43271Z" fill="white"/>
</svg>
