<svg width="25" height="17" viewBox="0 0 25 17" fill="none"  class="contact__item-icon" xmlns="http://www.w3.org/2000/svg">
<path d="M2.57435 0.901123C1.34723 0.901123 0.341797 1.90656 0.341797 3.13368V14.2966C0.341797 15.5237 1.34723 16.5292 2.57435 16.5292H22.1092C23.3364 16.5292 24.3418 15.5237 24.3418 14.2966V3.13368C24.3418 1.90656 23.3364 0.901123 22.1092 0.901123H2.57435ZM2.57435 2.01746H22.1092C22.1818 2.01746 22.2503 2.03116 22.3186 2.04371L12.8303 10.5294C12.5928 10.7416 12.091 10.7416 11.8536 10.5294L2.3653 2.04371C2.43353 2.03116 2.50179 2.01746 2.57435 2.01746ZM1.51917 2.78486L8.42618 8.95921L1.52803 14.6712C1.48865 14.5554 1.45822 14.4273 1.45822 14.2962V3.13323C1.45822 3.00903 1.48369 2.89535 1.51917 2.78486ZM23.1645 2.78486C23.2 2.8955 23.2255 3.00945 23.2255 3.13365V14.2966C23.2255 14.4277 23.1951 14.5558 23.1557 14.6716L16.2576 8.95926L23.1645 2.78486ZM9.2722 9.71808L11.1122 11.3576C11.8101 11.9814 12.8737 11.9814 13.5716 11.3576L15.4116 9.71808L22.2751 15.4042C22.2204 15.412 22.1666 15.4129 22.1093 15.4129H2.57441C2.51715 15.4129 2.46334 15.4129 2.40867 15.4042L9.2722 9.71808Z" fill="#CC0033" stroke="#CC0033" stroke-width="0.2"/>
</svg>
