<svg width="20" height="22" viewBox="0 0 20 22" fill="none" xmlns="http://www.w3.org/2000/svg">
    <path d="M9.9165 0.792969C6.25752 0.792969 3.25 3.64625 3.25 7.71597C3.25 9.16833 3.59208 10.1788 4.22758 11.2976L9.46802 20.5285C9.52739 20.6358 9.62335 20.7183 9.73839 20.761C9.85344 20.8036 9.98001 20.8036 10.0951 20.761C10.2101 20.7183 10.3061 20.6358 10.3654 20.5285L15.6059 11.2976C16.2414 10.1786 16.5835 9.16823 16.5835 7.71597C16.5835 3.64611 13.5752 0.792969 9.9165 0.792969ZM9.9165 1.81866C13.055 1.81866 15.5576 4.13901 15.5576 7.71597C15.5576 9.01962 15.3046 9.75677 14.7163 10.793L9.9166 19.2384L5.11691 10.793C4.52844 9.75694 4.27556 9.01976 4.27556 7.71611C4.27556 4.13891 6.77794 1.81866 9.9165 1.81866ZM9.9165 3.86995C7.93996 3.86995 6.32674 5.4832 6.32674 7.4597C6.32674 9.43624 7.93999 11.0495 9.9165 11.0495C11.893 11.0495 13.5063 9.43621 13.5063 7.4597C13.5063 5.48317 11.893 3.86995 9.9165 3.86995ZM9.9165 4.89564C11.3386 4.89564 12.4806 6.03758 12.4806 7.4597C12.4806 8.88183 11.3386 10.0238 9.9165 10.0238C8.49437 10.0238 7.35243 8.88183 7.35243 7.4597C7.35243 6.03758 8.49437 4.89564 9.9165 4.89564Z"
          fill="#CC0033"/>
</svg>
