<svg width="25" height="25" viewBox="0 0 25 25" fill="none" xmlns="http://www.w3.org/2000/svg">
    <g id="Group 6889">
        <circle id="Ellipse 210" cx="12.4305" cy="12.2313" r="12.2313" fill="#CC0033"/>
        <g id="Group 6888">
            <path id="Vector"
                  d="M15.7959 16.648H11.5895V17.9099H15.7959C16.4095 17.9099 16.9979 17.6662 17.4318 17.2323C17.8657 16.7984 18.1094 16.21 18.1094 15.5964V8.86614C18.1094 8.25256 17.8657 7.66412 17.4318 7.2302C16.9979 6.79634 16.4095 6.55261 15.7959 6.55261H9.06564C8.45206 6.55261 7.86362 6.79634 7.42969 7.2302C6.99584 7.66412 6.75211 8.25256 6.75211 8.86614V15.2473C6.74636 15.642 6.89931 16.0224 7.17666 16.3033C7.45407 16.584 7.83254 16.7418 8.22723 16.741C8.62193 16.7401 8.99977 16.5809 9.27596 16.2989L13.4824 12.0714V14.5448H14.7443V10.5487C14.7443 10.3814 14.6778 10.2209 14.5595 10.1025C14.4411 9.98422 14.2807 9.91774 14.1133 9.91774H10.1172V11.1797H12.5906L8.3842 15.3966C8.32552 15.4656 8.22927 15.4893 8.14526 15.4554C8.06125 15.4215 8.00833 15.3377 8.01401 15.2472V8.86608C8.01401 8.58716 8.12479 8.31967 8.32203 8.12249C8.5192 7.92524 8.78669 7.81448 9.06562 7.81448H15.7959C16.0748 7.81448 16.3423 7.92525 16.5395 8.12249C16.7367 8.31967 16.8475 8.58716 16.8475 8.86608V15.5963C16.8475 15.8753 16.7367 16.1428 16.5395 16.3399C16.3423 16.5372 16.0748 16.6479 15.7959 16.6479L15.7959 16.648Z"
                  fill="white"/>
        </g>
    </g>
</svg>
