<svg width="14" height="14" viewBox="0 0 14 14" fill="none" xmlns="http://www.w3.org/2000/svg">
<path d="M10.021 8.87148C10.8351 8.24716 11.4351 7.3797 11.7361 6.39147C12.0372 5.40335 12.0242 4.34452 11.699 3.3643C11.3738 2.38405 10.7528 1.53202 9.92365 0.928381C9.09446 0.324701 8.09898 0 7.07772 0C6.05646 0 5.06102 0.324723 4.23179 0.928381C3.40261 1.53206 2.78164 2.38409 2.45646 3.3643C2.1312 4.34463 2.11827 5.40344 2.41931 6.39147C2.72037 7.37959 3.32034 8.24705 4.13445 8.87148C2.02584 9.82714 0.577637 11.7648 0.577637 14H2.02322C2.02322 11.6701 4.29043 9.78767 7.07764 9.78767C9.86485 9.78767 12.1321 11.6832 12.1321 14H13.5776C13.5776 11.7648 12.1294 9.82716 10.0208 8.87148H10.021ZM3.82777 4.95138C3.82777 4.07853 4.17021 3.24148 4.77968 2.62428C5.38914 2.00707 6.21586 1.66041 7.07787 1.66041C7.93988 1.66041 8.76653 2.00707 9.37606 2.62428C9.98552 3.24141 10.328 4.07844 10.328 4.95138C10.328 5.82414 9.98552 6.66119 9.37606 7.27847C8.76659 7.8956 7.93988 8.24235 7.07787 8.24235C6.21612 8.24167 5.3899 7.89466 4.78054 7.27771C4.17117 6.66067 3.82855 5.82397 3.82788 4.95149L3.82777 4.95138Z" fill="#CC0033"/>
</svg>
