<svg width="21" height="21" viewBox="0 0 21 21" fill="none" class="contact__item-icon" xmlns="http://www.w3.org/2000/svg">
<path fill-rule="evenodd" clip-rule="evenodd" d="M5.10746 0.854671C4.85603 0.610384 4.5147 0.472656 4.15858 0.472656C3.80245 0.472656 3.46102 0.610384 3.20958 0.854671C2.74291 1.30808 2.09244 1.94019 1.52154 2.49477C0.545805 3.4429 0.137307 4.81046 0.439695 6.1186C0.440139 6.12032 0.440694 6.12248 0.441138 6.12421C0.941339 8.16465 2.23609 11.4657 5.63183 14.7651C9.0277 18.0645 12.4261 19.3224 14.527 19.8053C14.5283 19.8057 14.5301 19.8057 14.5319 19.8062C15.8768 20.0996 17.2835 19.7036 18.2582 18.7564C18.8305 18.2048 19.4815 17.5723 19.9485 17.1185C20.2005 16.8742 20.3418 16.5425 20.3418 16.1964C20.3418 15.8504 20.1999 15.5188 19.9485 15.2744C19.0971 14.4472 17.5912 12.9841 16.7399 12.1569C16.216 11.6479 15.3659 11.6479 14.8421 12.1569L12.835 14.1066C12.6936 14.2443 12.4752 14.2734 12.3012 14.1792C11.5777 13.727 10.2951 12.8502 8.94878 11.5423C7.60385 10.2356 6.70148 8.99017 6.24249 8.29257C6.14003 8.12174 6.16867 7.907 6.31131 7.76831C6.31176 7.76788 6.3122 7.76745 6.31276 7.76702C6.85223 7.23886 7.7243 6.3917 8.31617 5.8165C8.84013 5.30753 8.84013 4.4816 8.31617 3.97256L5.10746 0.854671ZM4.47483 1.46944L7.68371 4.5869C7.85821 4.75644 7.85821 5.032 7.68371 5.20156C7.09095 5.77759 6.218 6.62563 5.67751 7.15423C5.24491 7.57465 5.16122 8.22876 5.4757 8.74084C5.47847 8.7444 5.48069 8.74785 5.48291 8.75174C5.96078 9.4794 6.90523 10.7857 8.31631 12.1566C9.72697 13.5272 11.071 14.4444 11.8182 14.9113C11.8222 14.9139 11.8266 14.916 11.8306 14.9187C12.3585 15.2251 13.0332 15.1434 13.4682 14.7209L15.4748 12.7713C15.6492 12.6017 15.9329 12.6017 16.1074 12.7713L19.316 15.889C19.3997 15.9702 19.4471 16.0811 19.4471 16.1963C19.4471 16.3115 19.3997 16.4224 19.316 16.5037C18.8493 16.9565 18.1997 17.5882 17.627 18.1402L17.6257 18.1415C16.8678 18.8775 15.7753 19.1857 14.7303 18.9584C12.7286 18.498 9.49781 17.2918 6.26449 14.1504C3.03118 11.0086 1.78963 7.86988 1.31222 5.92557C1.07822 4.90886 1.39591 3.84639 2.15419 3.10961L3.84223 1.46952C3.92593 1.3882 4.04004 1.34214 4.1586 1.34214C4.27716 1.34214 4.39127 1.3882 4.47486 1.46952L4.47483 1.46944Z" fill="#CC0033" stroke="#CC0033" stroke-width="0.4"/>
</svg>
