<svg width="37" height="35" viewBox="0 0 37 35" fill="none" xmlns="http://www.w3.org/2000/svg">
    <path fill-rule="evenodd" clip-rule="evenodd"
          d="M9.27057 1.12458C8.83057 0.697079 8.23325 0.456055 7.61003 0.456055C6.98681 0.456055 6.3893 0.697079 5.94929 1.12458C5.13262 1.91805 3.99429 3.02424 2.99521 3.99475C1.28768 5.65398 0.572807 8.04721 1.10199 10.3365C1.10276 10.3395 1.10373 10.3432 1.10451 10.3463C1.97986 13.917 4.24567 19.6938 10.1882 25.4678C16.131 31.2418 22.0782 33.4431 25.7548 34.2882C25.7571 34.2889 25.7602 34.2889 25.7633 34.2897C28.117 34.8033 30.5786 34.1102 32.2844 32.4527C33.2859 31.4873 34.4252 30.3805 35.2424 29.5863C35.6834 29.1588 35.9307 28.5782 35.9307 27.9727C35.9307 27.3672 35.6824 26.7868 35.2424 26.3591C33.7524 24.9115 31.1171 22.351 29.6274 20.9036C28.7104 20.0127 27.2228 20.0127 26.3061 20.9036L22.7937 24.3154C22.5462 24.5564 22.1642 24.6074 21.8596 24.4424C20.5936 23.6512 18.3489 22.1168 15.9929 19.8279C13.6392 17.5411 12.0601 15.3617 11.2569 14.1409C11.0776 13.8419 11.1277 13.4662 11.3773 13.2235C11.3781 13.2227 11.3789 13.2219 11.3798 13.2212C12.3239 12.2969 13.85 10.8144 14.8858 9.80778C15.8027 8.91709 15.8027 7.47171 14.8858 6.58088L9.27057 1.12458ZM8.16347 2.20042L13.779 7.65598C14.0844 7.95268 14.0844 8.43491 13.779 8.73163C12.7417 9.73968 11.214 11.2238 10.2682 12.1488C9.51111 12.8845 9.36466 14.0292 9.91499 14.9254C9.91985 14.9316 9.92373 14.9377 9.92762 14.9444C10.7639 16.2179 12.4167 18.5039 14.8861 20.903C17.3547 23.3015 19.7068 24.9066 21.0143 25.7237C21.0213 25.7282 21.0291 25.732 21.0361 25.7367C21.96 26.2729 23.1407 26.1298 23.9018 25.3905L27.4134 21.9787C27.7186 21.682 28.2151 21.682 28.5205 21.9787L34.1355 27.4347C34.282 27.5768 34.3649 27.7708 34.3649 27.9724C34.3649 28.174 34.282 28.368 34.1355 28.5104C33.3188 29.3029 32.1821 30.4083 31.1798 31.3743L31.1775 31.3766C29.8511 32.6645 27.9392 33.2039 26.1105 32.8061C22.6076 32.0003 16.9537 29.8895 11.2954 24.392C5.63708 18.894 3.46437 13.4012 2.6289 9.99866C2.2194 8.2194 2.77537 6.36009 4.10235 5.07073L7.05643 2.20056C7.2029 2.05825 7.4026 1.97765 7.61007 1.97765C7.81754 1.97765 8.01724 2.05825 8.16352 2.20056L8.16347 2.20042Z"
          fill="#CC0033" stroke="#CC0033" stroke-width="0.4"/>
</svg>
