<svg width="13" height="10" viewBox="0 0 13 10" fill="none" xmlns="http://www.w3.org/2000/svg">
<path id="Vector" d="M11.0601 0.579322C10.7682 0.589058 10.4917 0.712272 10.2893 0.922638C8.14157 3.07497 6.50122 4.8727 4.50808 6.90708L2.38472 5.11314V5.11326C2.15719 4.92085 1.86241 4.82684 1.56548 4.85211C1.26863 4.87738 0.993916 5.01983 0.802199 5.24783C0.61037 5.47594 0.517291 5.77093 0.543371 6.06778C0.56945 6.36463 0.712599 6.63887 0.941166 6.83011L3.8563 9.29679V9.29668C4.07085 9.47738 4.34522 9.57115 4.62536 9.55945C4.90563 9.54786 5.17128 9.4316 5.36997 9.23364C7.78509 6.81333 9.50431 4.88032 11.8731 2.50648V2.5066C12.0914 2.29564 12.2148 2.00527 12.2151 1.70184C12.2156 1.39828 12.093 1.1077 11.8753 0.896158C11.6576 0.684623 11.3636 0.570349 11.0602 0.579488L11.0601 0.579322Z" fill="#CC0033"/>
</svg>
