<svg width="16" height="16" viewBox="0 0 16 16" fill="none" xmlns="http://www.w3.org/2000/svg">
<g id="Vector">
<path d="M1.52683 1.00481C1.91735 0.614283 2.55052 0.614283 2.94104 1.00481L14.9619 13.0256C15.3524 13.4161 15.3524 14.0493 14.9619 14.4398L14.685 14.7167C14.2944 15.1073 13.6613 15.1073 13.2707 14.7167L1.24992 2.69592C0.8594 2.3054 0.8594 1.67224 1.24992 1.28171L1.52683 1.00481Z" fill="#CC0033"/>
<path d="M14.6852 1.00481C14.2947 0.614283 13.6615 0.614283 13.271 1.00481L1.25015 13.0256C0.859629 13.4161 0.85963 14.0493 1.25015 14.4398L1.52706 14.7167C1.91758 15.1073 2.55075 15.1073 2.94127 14.7167L14.9621 2.69592C15.3526 2.3054 15.3526 1.67224 14.9621 1.28171L14.6852 1.00481Z" fill="#CC0033"/>
</g>
</svg>
