<?xml version="1.0" encoding="UTF-8" standalone="no"?>
<!DOCTYPE svg PUBLIC "-//W3C//DTD SVG 1.1//EN" "http://www.w3.org/Graphics/SVG/1.1/DTD/svg11.dtd">
<svg width="100%" height="100%" viewBox="0 0 32 32"
     version="1.1" xmlns="http://www.w3.org/2000/svg" xml:space="preserve"
     style="fill-rule:evenodd;clip-rule:evenodd;">
    <g transform="matrix(1,0,0,1,-15.2138,-15.2328)">
        <g>
            <path d="M43.775,30.794C43.775,23.62 37.95,17.794 30.775,17.794C23.601,17.794 17.775,23.62 17.775,30.794C17.775,37.969 23.601,43.794 30.775,43.794C37.95,43.794 43.775,37.969 43.775,30.794Z"
                  style="fill:rgb(204,0,51);"/>
            <path d="M44.275,30.794C44.275,23.344 38.226,17.294 30.775,17.294C23.325,17.294 17.275,23.344 17.275,30.794C17.275,38.245 23.325,44.294 30.775,44.294C38.226,44.294 44.275,38.245 44.275,30.794Z"
                  style="fill:none;stroke:white;stroke-width:1px;"/>
        </g>
        <path d="M33.235,30.307L29.258,26.009C28.994,25.723 28.541,25.725 28.28,26.015C28.05,26.269 28.052,26.657 28.285,26.909L31.245,30.116C31.598,30.499 31.598,31.09 31.245,31.473L28.285,34.68C28.052,34.932 28.05,35.32 28.28,35.574C28.541,35.863 28.994,35.866 29.258,35.58L33.235,31.282C33.486,31.005 33.486,30.584 33.235,30.307Z"
              style="fill:white;fill-rule:nonzero;"/>
    </g>
</svg>
