<svg width="15" height="17" viewBox="0 0 15 17" fill="none" xmlns="http://www.w3.org/2000/svg">
<path d="M10.5721 0.489502C10.8199 0.595554 10.9099 0.787198 10.9232 1.0636C10.9971 2.59008 12.0162 3.74788 13.4753 3.97793C13.5992 3.99756 13.7263 3.99505 13.8518 4.00465C14.1437 4.0272 14.3156 4.21008 14.3164 4.50986C14.3188 5.32237 14.3188 6.13487 14.3164 6.94779C14.3156 7.2647 14.119 7.45968 13.8078 7.45467C12.8477 7.44006 11.9335 7.22253 11.0722 6.77786C11.0362 6.75949 11.0007 6.73987 10.964 6.72233C10.9563 6.71857 10.945 6.72191 10.9147 6.72191C10.9147 6.78287 10.9147 6.843 10.9147 6.9027C10.9131 8.40788 10.9313 9.9139 10.9055 11.4187C10.8635 13.8587 9.09727 15.9726 6.77366 16.4039C4.03635 16.9125 1.4508 15.1054 0.882917 12.2871C0.301309 9.39951 2.2326 6.52651 5.0579 6.08268C5.31097 6.04302 5.56847 6.0284 5.82436 6.01963C6.1077 6.01003 6.30265 6.20752 6.30426 6.50313C6.3083 7.32607 6.3087 8.14902 6.30426 8.97238C6.30265 9.27634 6.11456 9.45045 5.79571 9.46381C4.47427 9.51934 3.68844 11.0045 4.36449 12.169C4.7673 12.8629 5.55515 13.1923 6.30547 12.981C7.05216 12.771 7.57887 12.0692 7.57968 11.2625C7.58251 7.8818 7.58331 4.50109 7.57685 1.1208C7.57645 0.830621 7.65314 0.61643 7.91226 0.489919H10.5717L10.5721 0.489502ZM5.39936 6.97827C5.28877 6.99498 5.20482 7.00583 5.12127 7.02003C2.96032 7.39413 1.42255 9.56359 1.72445 11.8107C2.03685 14.1338 4.02223 15.758 6.27197 15.5309C8.33403 15.3229 9.95132 13.5355 10.0014 11.3911C10.0203 10.5895 10.0074 9.78697 10.0082 8.9849C10.009 7.99537 10.0082 7.00541 10.0082 6.01588C10.0082 5.96369 10.0066 5.91149 10.0094 5.85972C10.0337 5.45305 10.4131 5.25264 10.738 5.48395C11.2312 5.83467 11.7543 6.12109 12.3322 6.28351C12.6785 6.38079 13.0345 6.44259 13.3849 6.51983C13.4006 6.46555 13.4087 6.45094 13.4087 6.43633C13.4099 5.96243 13.4079 5.48854 13.4123 5.01423C13.4131 4.9182 13.3647 4.90734 13.2928 4.89607C11.7252 4.6514 10.4748 3.45561 10.1116 1.85439C10.0797 1.71452 10.0554 1.57298 10.0288 1.43729H8.48822V1.63311C8.48822 4.80004 8.48822 7.96698 8.487 11.1339C8.487 11.2947 8.48135 11.4571 8.46077 11.6166C8.26138 13.184 6.81968 14.2399 5.31218 13.9259C3.84504 13.6203 2.89816 12.0487 3.3042 10.5527C3.58753 9.50806 4.26399 8.85881 5.27948 8.58491C5.32469 8.57281 5.39411 8.51936 5.39451 8.48429C5.40218 7.99077 5.39976 7.49684 5.39976 6.97744L5.39936 6.97827Z" fill="#CC0033"/>
</svg>
