<svg width="12" height="16" viewBox="0 0 12 16" fill="none" xmlns="http://www.w3.org/2000/svg">
    <g id="Group">
        <path id="Vector"
              d="M10.8583 0.995648H1.19444C1.09722 0.995648 1 1.09287 1 1.19009V14.8012C1 14.8984 1.09722 14.9956 1.19444 14.9956H7.88331H7.9611C8.01946 14.9956 8.05832 14.9762 8.09719 14.9372L11.0138 12.0011C11.0527 11.9623 11.0722 11.8261 11.0722 11.8261L11.0721 1.19005C11.0527 1.09283 10.9555 0.995605 10.8583 0.995605L10.8583 0.995648ZM8.13609 14.3345V12.8567C8.13609 12.429 8.48612 12.0595 8.93329 12.0595H10.3916L8.13609 14.3345ZM10.6639 11.6706H8.93331C8.29161 11.6706 7.74722 12.1956 7.74722 12.8567V14.6067H1.3889V1.38452H10.6639L10.6639 11.6706Z"
              fill="#CC0033" stroke="#CC0033" stroke-width="0.3"/>
        <path id="Vector_2"
              d="M2.6339 6.22629H9.40054C9.5172 6.22629 9.59499 6.1485 9.59499 6.03185C9.59499 5.91519 9.5172 5.8374 9.40054 5.8374H2.6339C2.51724 5.8374 2.43945 5.91519 2.43945 6.03185C2.43945 6.1485 2.51724 6.22629 2.6339 6.22629Z"
              fill="#CC0033" stroke="#CC0033" stroke-width="0.3"/>
        <path id="Vector_3"
              d="M2.6339 4.28171H9.40054C9.5172 4.28171 9.59499 4.20392 9.59499 4.08727C9.59499 3.97061 9.5172 3.89282 9.40054 3.89282H2.6339C2.51724 3.89282 2.43945 3.97061 2.43945 4.08727C2.43945 4.20392 2.51724 4.28171 2.6339 4.28171Z"
              fill="#CC0033" stroke="#CC0033" stroke-width="0.3"/>
        <path id="Vector_4"
              d="M2.6339 8.17063H9.40054C9.5172 8.17063 9.59499 8.09284 9.59499 7.97618C9.59499 7.85953 9.5172 7.78174 9.40054 7.78174H2.6339C2.51724 7.78174 2.43945 7.85953 2.43945 7.97618C2.43945 8.09284 2.51724 8.17063 2.6339 8.17063Z"
              fill="#CC0033" stroke="#CC0033" stroke-width="0.3"/>
        <path id="Vector_5"
              d="M2.6339 10.115H9.40054C9.5172 10.115 9.59499 10.0372 9.59499 9.92052C9.59499 9.80386 9.5172 9.72607 9.40054 9.72607H2.6339C2.51724 9.72607 2.43945 9.80386 2.43945 9.92052C2.43945 10.0372 2.51724 10.115 2.6339 10.115Z"
              fill="#CC0033" stroke="#CC0033" stroke-width="0.3"/>
        <path id="Vector_6"
              d="M2.6339 12.0595H6.89222C7.00887 12.0595 7.08666 11.9818 7.08666 11.8651C7.08666 11.7484 7.00887 11.6707 6.89222 11.6707H2.6339C2.51724 11.6707 2.43945 11.7484 2.43945 11.8651C2.43945 11.9818 2.51724 12.0595 2.6339 12.0595Z"
              fill="#CC0033" stroke="#CC0033" stroke-width="0.3"/>
    </g>
</svg>
