<svg width="14" height="16" viewBox="0 0 14 16" fill="none" xmlns="http://www.w3.org/2000/svg">
    <g id="Group">
        <path id="Vector"
              d="M6.97523 2.62302V1.89065H8.02151V0.495605H4.5339V1.89065H5.58018V2.62302C2.44133 2.97178 0 5.62237 0 8.86585C0 12.336 2.80753 15.1436 6.27771 15.1436C9.74788 15.1436 12.5554 12.336 12.5554 8.86585C12.5554 5.63981 10.1141 2.97178 6.97523 2.62302ZM6.27771 14.446C3.2086 14.446 0.697523 11.935 0.697523 8.86585C0.697523 5.79675 3.2086 3.28567 6.27771 3.28567C9.34681 3.28567 11.8579 5.79675 11.8579 8.86585C11.8579 11.935 9.34681 14.446 6.27771 14.446Z"
              fill="#CC0033"/>
        <path id="Vector_2"
              d="M1.74414 8.86593C1.74414 11.377 3.76696 13.3998 6.27804 13.3998V4.33203C3.76696 4.33203 1.74414 6.35485 1.74414 8.86593Z"
              fill="#CC0033"/>
        <path id="Vector_3"
              d="M10.7771 1.85577L9.76562 2.86715C10.7771 3.46006 11.6315 4.31454 12.2244 5.32592L13.2358 4.31448C12.6081 3.32054 11.7536 2.48348 10.7771 1.85571V1.85577Z"
              fill="#CC0033"/>
    </g>
</svg>
