<svg width="12" height="18" viewBox="0 0 12 18" fill="none" xmlns="http://www.w3.org/2000/svg">
    <g id="Group 6933">
        <path id="Vector"
              d="M5.99981 0.495605C2.98118 0.495605 0.5 2.92089 0.5 6.38016C0.5 7.61467 0.782213 8.47356 1.3065 9.42453L5.62982 17.2708C5.6788 17.3621 5.75796 17.4321 5.85288 17.4684C5.94778 17.5047 6.05221 17.5047 6.14713 17.4684C6.24203 17.4321 6.3212 17.3621 6.37019 17.2708L10.6935 9.42453C11.2178 8.47338 11.5 7.61458 11.5 6.38016C11.5 2.92078 9.01821 0.495605 5.99981 0.495605ZM5.99981 1.36745C8.58904 1.36745 10.6537 3.33974 10.6537 6.38016C10.6537 7.48826 10.445 8.11484 9.9596 8.99562L5.99989 16.1742L2.04019 8.99562C1.5547 8.11499 1.34608 7.48837 1.34608 6.38028C1.34608 3.33965 3.41052 1.36745 5.99981 1.36745ZM5.99981 3.11104C4.36918 3.11104 3.03829 4.4823 3.03829 6.16233C3.03829 7.84239 4.36921 9.21362 5.99981 9.21362C7.63041 9.21362 8.96133 7.84236 8.96133 6.16233C8.96133 4.48227 7.63041 3.11104 5.99981 3.11104ZM5.99981 3.98288C7.17305 3.98288 8.11514 4.95352 8.11514 6.16233C8.11514 7.37114 7.17305 8.34179 5.99981 8.34179C4.82657 8.34179 3.88448 7.37114 3.88448 6.16233C3.88448 4.95352 4.82657 3.98288 5.99981 3.98288Z"
              fill="#CC0033"/>
    </g>
</svg>
