<svg width="18" height="14" viewBox="0 0 18 14" fill="none" xmlns="http://www.w3.org/2000/svg">
<path d="M17.7788 9.0268C17.7564 9.38974 17.7316 9.75225 17.7122 10.1152C17.679 10.7425 17.6183 11.364 17.4141 11.9652C17.0537 13.0254 16.3232 13.6523 15.2138 13.7639C14.2622 13.8599 13.3031 13.8906 12.3465 13.9311C9.93269 14.033 7.51845 13.99 5.10547 13.8911C4.36823 13.8608 3.62594 13.8174 2.90007 13.697C1.76074 13.5079 1.1056 12.7719 0.830241 11.6688C0.620984 10.8293 0.614668 9.96993 0.587301 9.11522C0.533829 7.42306 0.530461 5.73006 0.698876 4.0438C0.766664 3.36635 0.93929 2.70574 1.37212 2.1546C1.79863 1.61146 2.36409 1.26662 3.04954 1.19968C3.94593 1.11252 4.8478 1.05147 5.74798 1.03421C7.55677 0.999264 9.36639 0.97737 11.1752 0.996737C12.4568 1.01021 13.7389 1.08558 15.0188 1.16136C15.8445 1.2102 16.5443 1.54956 17.047 2.22786C17.343 2.62742 17.503 3.09393 17.5674 3.57813C17.6529 4.22064 17.6887 4.86988 17.7451 5.51659C17.7573 5.65554 17.7678 5.79406 17.7788 5.933C17.7788 6.96413 17.7788 7.99568 17.7788 9.0268ZM9.54618 1.9466C7.96223 1.9845 6.76353 2.00513 5.56525 2.04513C4.82633 2.06997 4.08698 2.10576 3.351 2.17186C2.6466 2.23501 2.14178 2.58364 1.90052 3.28382C1.72074 3.80591 1.67232 4.34274 1.64032 4.88504C1.54895 6.42478 1.54432 7.96578 1.61169 9.50594C1.64116 10.1813 1.63653 10.8638 1.83947 11.5202C1.92705 11.8036 2.02473 12.0814 2.2483 12.2983C2.55061 12.5909 2.92365 12.7155 3.3249 12.7543C3.92109 12.8115 4.51897 12.8616 5.11726 12.8852C7.81107 12.9926 10.5053 13.0187 13.1991 12.8911C13.8589 12.8599 14.5208 12.8305 15.1759 12.7538C15.762 12.6852 16.1797 12.3597 16.402 11.7909C16.6154 11.2436 16.6689 10.6731 16.7022 10.0962C16.7914 8.56197 16.799 7.02686 16.7312 5.49218C16.7009 4.80546 16.6954 4.11538 16.5085 3.44256C16.3578 2.90026 16.0693 2.48216 15.5249 2.29817C15.2685 2.21186 14.9911 2.15712 14.7208 2.14575C12.8682 2.06618 11.0152 2.00176 9.54618 1.9466Z" fill="#CC0033"/>
<path d="M6.98475 7.30214C6.98475 6.64658 6.98391 5.99103 6.98475 5.33505C6.98601 4.67275 7.51821 4.35276 8.0984 4.66896C9.31689 5.33378 10.5341 6.00029 11.7501 6.66932C12.2107 6.92279 12.3231 7.41372 12.0027 7.77623C11.9307 7.85791 11.8339 7.92402 11.737 7.97623C10.5211 8.63305 9.30341 9.28776 8.08492 9.93953C7.52031 10.2414 6.9877 9.92353 6.98559 9.28524C6.98349 8.62421 6.98517 7.96275 6.98517 7.3013L6.98475 7.30214ZM10.836 7.3173C9.87392 6.79058 8.94511 6.28281 8.00451 5.76788V8.83978C8.95058 8.33116 9.87855 7.83223 10.836 7.3173Z" fill="#CC0033"/>
</svg>
